<?xml version="1.0" encoding="utf-8"?>
<svg xmlns="http://www.w3.org/2000/svg" xmlns:xlink="http://www.w3.org/1999/xlink" width="672" height="480" viewBox="0 0 2688 1920">
<defs>
  <clipPath id="clip410">
    <rect x="0" y="0" width="2688" height="1920"/>
  </clipPath>
</defs>
<path clip-path="url(#clip410)" d="
M0 1920 L2688 1920 L2688 0 L0 0  Z
  " fill="#ffffff" fill-rule="evenodd" fill-opacity="1"/>
<defs>
  <clipPath id="clip411">
    <rect x="537" y="0" width="1883" height="1883"/>
  </clipPath>
</defs>
<path clip-path="url(#clip410)" d="
M225.307 1734.12 L2640.76 1734.12 L2640.76 127.792 L225.307 127.792  Z
  " fill="#ffffff" fill-rule="evenodd" fill-opacity="1"/>
<defs>
  <clipPath id="clip412">
    <rect x="225" y="127" width="2416" height="1607"/>
  </clipPath>
</defs>
<polyline clip-path="url(#clip412)" style="stroke:#000000; stroke-linecap:round; stroke-linejoin:round; stroke-width:2; stroke-opacity:0.1; fill:none" points="
  293.669,1734.12 293.669,127.792 
  "/>
<polyline clip-path="url(#clip412)" style="stroke:#000000; stroke-linecap:round; stroke-linejoin:round; stroke-width:2; stroke-opacity:0.1; fill:none" points="
  863.35,1734.12 863.35,127.792 
  "/>
<polyline clip-path="url(#clip412)" style="stroke:#000000; stroke-linecap:round; stroke-linejoin:round; stroke-width:2; stroke-opacity:0.1; fill:none" points="
  1433.03,1734.12 1433.03,127.792 
  "/>
<polyline clip-path="url(#clip412)" style="stroke:#000000; stroke-linecap:round; stroke-linejoin:round; stroke-width:2; stroke-opacity:0.1; fill:none" points="
  2002.71,1734.12 2002.71,127.792 
  "/>
<polyline clip-path="url(#clip412)" style="stroke:#000000; stroke-linecap:round; stroke-linejoin:round; stroke-width:2; stroke-opacity:0.1; fill:none" points="
  2572.39,1734.12 2572.39,127.792 
  "/>
<polyline clip-path="url(#clip410)" style="stroke:#000000; stroke-linecap:round; stroke-linejoin:round; stroke-width:4; stroke-opacity:1; fill:none" points="
  225.307,1734.12 2640.76,1734.12 
  "/>
<polyline clip-path="url(#clip410)" style="stroke:#000000; stroke-linecap:round; stroke-linejoin:round; stroke-width:4; stroke-opacity:1; fill:none" points="
  293.669,1734.12 293.669,1715.22 
  "/>
<polyline clip-path="url(#clip410)" style="stroke:#000000; stroke-linecap:round; stroke-linejoin:round; stroke-width:4; stroke-opacity:1; fill:none" points="
  863.35,1734.12 863.35,1715.22 
  "/>
<polyline clip-path="url(#clip410)" style="stroke:#000000; stroke-linecap:round; stroke-linejoin:round; stroke-width:4; stroke-opacity:1; fill:none" points="
  1433.03,1734.12 1433.03,1715.22 
  "/>
<polyline clip-path="url(#clip410)" style="stroke:#000000; stroke-linecap:round; stroke-linejoin:round; stroke-width:4; stroke-opacity:1; fill:none" points="
  2002.71,1734.12 2002.71,1715.22 
  "/>
<polyline clip-path="url(#clip410)" style="stroke:#000000; stroke-linecap:round; stroke-linejoin:round; stroke-width:4; stroke-opacity:1; fill:none" points="
  2572.39,1734.12 2572.39,1715.22 
  "/>
<path clip-path="url(#clip410)" d="M255.972 1767.34 Q252.361 1767.34 250.533 1770.9 Q248.727 1774.45 248.727 1781.58 Q248.727 1788.68 250.533 1792.25 Q252.361 1795.79 255.972 1795.79 Q259.607 1795.79 261.412 1792.25 Q263.241 1788.68 263.241 1781.58 Q263.241 1774.45 261.412 1770.9 Q259.607 1767.34 255.972 1767.34 M255.972 1763.64 Q261.783 1763.64 264.838 1768.24 Q267.917 1772.83 267.917 1781.58 Q267.917 1790.3 264.838 1794.91 Q261.783 1799.49 255.972 1799.49 Q250.162 1799.49 247.084 1794.91 Q244.028 1790.3 244.028 1781.58 Q244.028 1772.83 247.084 1768.24 Q250.162 1763.64 255.972 1763.64 Z" fill="#000000" fill-rule="evenodd" fill-opacity="1" /><path clip-path="url(#clip410)" d="M276.134 1792.94 L281.019 1792.94 L281.019 1798.82 L276.134 1798.82 L276.134 1792.94 Z" fill="#000000" fill-rule="evenodd" fill-opacity="1" /><path clip-path="url(#clip410)" d="M301.204 1767.34 Q297.593 1767.34 295.764 1770.9 Q293.958 1774.45 293.958 1781.58 Q293.958 1788.68 295.764 1792.25 Q297.593 1795.79 301.204 1795.79 Q304.838 1795.79 306.643 1792.25 Q308.472 1788.68 308.472 1781.58 Q308.472 1774.45 306.643 1770.9 Q304.838 1767.34 301.204 1767.34 M301.204 1763.64 Q307.014 1763.64 310.069 1768.24 Q313.148 1772.83 313.148 1781.58 Q313.148 1790.3 310.069 1794.91 Q307.014 1799.49 301.204 1799.49 Q295.394 1799.49 292.315 1794.91 Q289.259 1790.3 289.259 1781.58 Q289.259 1772.83 292.315 1768.24 Q295.394 1763.64 301.204 1763.64 Z" fill="#000000" fill-rule="evenodd" fill-opacity="1" /><path clip-path="url(#clip410)" d="M331.366 1767.34 Q327.754 1767.34 325.926 1770.9 Q324.12 1774.45 324.12 1781.58 Q324.12 1788.68 325.926 1792.25 Q327.754 1795.79 331.366 1795.79 Q335 1795.79 336.805 1792.25 Q338.634 1788.68 338.634 1781.58 Q338.634 1774.45 336.805 1770.9 Q335 1767.34 331.366 1767.34 M331.366 1763.64 Q337.176 1763.64 340.231 1768.24 Q343.31 1772.83 343.31 1781.58 Q343.31 1790.3 340.231 1794.91 Q337.176 1799.49 331.366 1799.49 Q325.555 1799.49 322.477 1794.91 Q319.421 1790.3 319.421 1781.58 Q319.421 1772.83 322.477 1768.24 Q325.555 1763.64 331.366 1763.64 Z" fill="#000000" fill-rule="evenodd" fill-opacity="1" /><path clip-path="url(#clip410)" d="M826.151 1767.34 Q822.54 1767.34 820.712 1770.9 Q818.906 1774.45 818.906 1781.58 Q818.906 1788.68 820.712 1792.25 Q822.54 1795.79 826.151 1795.79 Q829.786 1795.79 831.591 1792.25 Q833.42 1788.68 833.42 1781.58 Q833.42 1774.45 831.591 1770.9 Q829.786 1767.34 826.151 1767.34 M826.151 1763.64 Q831.962 1763.64 835.017 1768.24 Q838.096 1772.83 838.096 1781.58 Q838.096 1790.3 835.017 1794.91 Q831.962 1799.49 826.151 1799.49 Q820.341 1799.49 817.263 1794.91 Q814.207 1790.3 814.207 1781.58 Q814.207 1772.83 817.263 1768.24 Q820.341 1763.64 826.151 1763.64 Z" fill="#000000" fill-rule="evenodd" fill-opacity="1" /><path clip-path="url(#clip410)" d="M846.313 1792.94 L851.198 1792.94 L851.198 1798.82 L846.313 1798.82 L846.313 1792.94 Z" fill="#000000" fill-rule="evenodd" fill-opacity="1" /><path clip-path="url(#clip410)" d="M865.41 1794.89 L881.73 1794.89 L881.73 1798.82 L859.785 1798.82 L859.785 1794.89 Q862.447 1792.13 867.031 1787.5 Q871.637 1782.85 872.818 1781.51 Q875.063 1778.98 875.943 1777.25 Q876.846 1775.49 876.846 1773.8 Q876.846 1771.04 874.901 1769.31 Q872.98 1767.57 869.878 1767.57 Q867.679 1767.57 865.225 1768.34 Q862.795 1769.1 860.017 1770.65 L860.017 1765.93 Q862.841 1764.79 865.295 1764.21 Q867.748 1763.64 869.785 1763.64 Q875.156 1763.64 878.35 1766.32 Q881.545 1769.01 881.545 1773.5 Q881.545 1775.63 880.734 1777.55 Q879.947 1779.45 877.841 1782.04 Q877.262 1782.71 874.16 1785.93 Q871.059 1789.12 865.41 1794.89 Z" fill="#000000" fill-rule="evenodd" fill-opacity="1" /><path clip-path="url(#clip410)" d="M891.591 1764.26 L909.947 1764.26 L909.947 1768.2 L895.873 1768.2 L895.873 1776.67 Q896.892 1776.32 897.91 1776.16 Q898.929 1775.97 899.947 1775.97 Q905.734 1775.97 909.114 1779.15 Q912.494 1782.32 912.494 1787.73 Q912.494 1793.31 909.021 1796.41 Q905.549 1799.49 899.23 1799.49 Q897.054 1799.49 894.785 1799.12 Q892.54 1798.75 890.133 1798.01 L890.133 1793.31 Q892.216 1794.45 894.438 1795 Q896.66 1795.56 899.137 1795.56 Q903.142 1795.56 905.48 1793.45 Q907.818 1791.34 907.818 1787.73 Q907.818 1784.12 905.48 1782.02 Q903.142 1779.91 899.137 1779.91 Q897.262 1779.91 895.387 1780.33 Q893.535 1780.74 891.591 1781.62 L891.591 1764.26 Z" fill="#000000" fill-rule="evenodd" fill-opacity="1" /><path clip-path="url(#clip410)" d="M1395.34 1767.34 Q1391.72 1767.34 1389.9 1770.9 Q1388.09 1774.45 1388.09 1781.58 Q1388.09 1788.68 1389.9 1792.25 Q1391.72 1795.79 1395.34 1795.79 Q1398.97 1795.79 1400.77 1792.25 Q1402.6 1788.68 1402.6 1781.58 Q1402.6 1774.45 1400.77 1770.9 Q1398.97 1767.34 1395.34 1767.34 M1395.34 1763.64 Q1401.15 1763.64 1404.2 1768.24 Q1407.28 1772.83 1407.28 1781.58 Q1407.28 1790.3 1404.2 1794.91 Q1401.15 1799.49 1395.34 1799.49 Q1389.52 1799.49 1386.45 1794.91 Q1383.39 1790.3 1383.39 1781.58 Q1383.39 1772.83 1386.45 1768.24 Q1389.52 1763.64 1395.34 1763.64 Z" fill="#000000" fill-rule="evenodd" fill-opacity="1" /><path clip-path="url(#clip410)" d="M1415.5 1792.94 L1420.38 1792.94 L1420.38 1798.82 L1415.5 1798.82 L1415.5 1792.94 Z" fill="#000000" fill-rule="evenodd" fill-opacity="1" /><path clip-path="url(#clip410)" d="M1430.61 1764.26 L1448.97 1764.26 L1448.97 1768.2 L1434.89 1768.2 L1434.89 1776.67 Q1435.91 1776.32 1436.93 1776.16 Q1437.95 1775.97 1438.97 1775.97 Q1444.76 1775.97 1448.14 1779.15 Q1451.52 1782.32 1451.52 1787.73 Q1451.52 1793.31 1448.04 1796.41 Q1444.57 1799.49 1438.25 1799.49 Q1436.08 1799.49 1433.81 1799.12 Q1431.56 1798.75 1429.15 1798.01 L1429.15 1793.31 Q1431.24 1794.45 1433.46 1795 Q1435.68 1795.56 1438.16 1795.56 Q1442.16 1795.56 1444.5 1793.45 Q1446.84 1791.34 1446.84 1787.73 Q1446.84 1784.12 1444.5 1782.02 Q1442.16 1779.91 1438.16 1779.91 Q1436.28 1779.91 1434.41 1780.33 Q1432.56 1780.74 1430.61 1781.62 L1430.61 1764.26 Z" fill="#000000" fill-rule="evenodd" fill-opacity="1" /><path clip-path="url(#clip410)" d="M1470.73 1767.34 Q1467.12 1767.34 1465.29 1770.9 Q1463.48 1774.45 1463.48 1781.58 Q1463.48 1788.68 1465.29 1792.25 Q1467.12 1795.79 1470.73 1795.79 Q1474.36 1795.79 1476.17 1792.25 Q1478 1788.68 1478 1781.58 Q1478 1774.45 1476.17 1770.9 Q1474.36 1767.34 1470.73 1767.34 M1470.73 1763.64 Q1476.54 1763.64 1479.59 1768.24 Q1482.67 1772.83 1482.67 1781.58 Q1482.67 1790.3 1479.59 1794.91 Q1476.54 1799.49 1470.73 1799.49 Q1464.92 1799.49 1461.84 1794.91 Q1458.78 1790.3 1458.78 1781.58 Q1458.78 1772.83 1461.84 1768.24 Q1464.92 1763.64 1470.73 1763.64 Z" fill="#000000" fill-rule="evenodd" fill-opacity="1" /><path clip-path="url(#clip410)" d="M1965.51 1767.34 Q1961.9 1767.34 1960.07 1770.9 Q1958.27 1774.45 1958.27 1781.58 Q1958.27 1788.68 1960.07 1792.25 Q1961.9 1795.79 1965.51 1795.79 Q1969.15 1795.79 1970.95 1792.25 Q1972.78 1788.68 1972.78 1781.58 Q1972.78 1774.45 1970.95 1770.9 Q1969.15 1767.34 1965.51 1767.34 M1965.51 1763.64 Q1971.32 1763.64 1974.38 1768.24 Q1977.46 1772.83 1977.46 1781.58 Q1977.46 1790.3 1974.38 1794.91 Q1971.32 1799.49 1965.51 1799.49 Q1959.7 1799.49 1956.63 1794.91 Q1953.57 1790.3 1953.57 1781.58 Q1953.57 1772.83 1956.63 1768.24 Q1959.7 1763.64 1965.51 1763.64 Z" fill="#000000" fill-rule="evenodd" fill-opacity="1" /><path clip-path="url(#clip410)" d="M1985.68 1792.94 L1990.56 1792.94 L1990.56 1798.82 L1985.68 1798.82 L1985.68 1792.94 Z" fill="#000000" fill-rule="evenodd" fill-opacity="1" /><path clip-path="url(#clip410)" d="M1999.56 1764.26 L2021.79 1764.26 L2021.79 1766.25 L2009.24 1798.82 L2004.36 1798.82 L2016.16 1768.2 L1999.56 1768.2 L1999.56 1764.26 Z" fill="#000000" fill-rule="evenodd" fill-opacity="1" /><path clip-path="url(#clip410)" d="M2030.95 1764.26 L2049.31 1764.26 L2049.31 1768.2 L2035.24 1768.2 L2035.24 1776.67 Q2036.25 1776.32 2037.27 1776.16 Q2038.29 1775.97 2039.31 1775.97 Q2045.1 1775.97 2048.48 1779.15 Q2051.86 1782.32 2051.86 1787.73 Q2051.86 1793.31 2048.38 1796.41 Q2044.91 1799.49 2038.59 1799.49 Q2036.42 1799.49 2034.15 1799.12 Q2031.9 1798.75 2029.5 1798.01 L2029.5 1793.31 Q2031.58 1794.45 2033.8 1795 Q2036.02 1795.56 2038.5 1795.56 Q2042.5 1795.56 2044.84 1793.45 Q2047.18 1791.34 2047.18 1787.73 Q2047.18 1784.12 2044.84 1782.02 Q2042.5 1779.91 2038.5 1779.91 Q2036.62 1779.91 2034.75 1780.33 Q2032.9 1780.74 2030.95 1781.62 L2030.95 1764.26 Z" fill="#000000" fill-rule="evenodd" fill-opacity="1" /><path clip-path="url(#clip410)" d="M2524.47 1794.89 L2532.11 1794.89 L2532.11 1768.52 L2523.79 1770.19 L2523.79 1765.93 L2532.06 1764.26 L2536.73 1764.26 L2536.73 1794.89 L2544.37 1794.89 L2544.37 1798.82 L2524.47 1798.82 L2524.47 1794.89 Z" fill="#000000" fill-rule="evenodd" fill-opacity="1" /><path clip-path="url(#clip410)" d="M2553.82 1792.94 L2558.7 1792.94 L2558.7 1798.82 L2553.82 1798.82 L2553.82 1792.94 Z" fill="#000000" fill-rule="evenodd" fill-opacity="1" /><path clip-path="url(#clip410)" d="M2578.89 1767.34 Q2575.28 1767.34 2573.45 1770.9 Q2571.64 1774.45 2571.64 1781.58 Q2571.64 1788.68 2573.45 1792.25 Q2575.28 1795.79 2578.89 1795.79 Q2582.52 1795.79 2584.33 1792.25 Q2586.16 1788.68 2586.16 1781.58 Q2586.16 1774.45 2584.33 1770.9 Q2582.52 1767.34 2578.89 1767.34 M2578.89 1763.64 Q2584.7 1763.64 2587.75 1768.24 Q2590.83 1772.83 2590.83 1781.58 Q2590.83 1790.3 2587.75 1794.91 Q2584.7 1799.49 2578.89 1799.49 Q2573.08 1799.49 2570 1794.91 Q2566.94 1790.3 2566.94 1781.58 Q2566.94 1772.83 2570 1768.24 Q2573.08 1763.64 2578.89 1763.64 Z" fill="#000000" fill-rule="evenodd" fill-opacity="1" /><path clip-path="url(#clip410)" d="M2609.05 1767.34 Q2605.44 1767.34 2603.61 1770.9 Q2601.8 1774.45 2601.8 1781.58 Q2601.8 1788.68 2603.61 1792.25 Q2605.44 1795.79 2609.05 1795.79 Q2612.68 1795.79 2614.49 1792.25 Q2616.32 1788.68 2616.32 1781.58 Q2616.32 1774.45 2614.49 1770.9 Q2612.68 1767.34 2609.05 1767.34 M2609.05 1763.64 Q2614.86 1763.64 2617.91 1768.24 Q2620.99 1772.83 2620.99 1781.58 Q2620.99 1790.3 2617.91 1794.91 Q2614.86 1799.49 2609.05 1799.49 Q2603.24 1799.49 2600.16 1794.91 Q2597.1 1790.3 2597.1 1781.58 Q2597.1 1772.83 2600.16 1768.24 Q2603.24 1763.64 2609.05 1763.64 Z" fill="#000000" fill-rule="evenodd" fill-opacity="1" /><path clip-path="url(#clip410)" d="M1218.35 1835.78 L1258.55 1835.78 L1258.55 1841.19 L1241.68 1841.19 L1241.68 1883.3 L1235.22 1883.3 L1235.22 1841.19 L1218.35 1841.19 L1218.35 1835.78 Z" fill="#000000" fill-rule="evenodd" fill-opacity="1" /><path clip-path="url(#clip410)" d="M1262.49 1847.65 L1268.35 1847.65 L1268.35 1883.3 L1262.49 1883.3 L1262.49 1847.65 M1262.49 1833.78 L1268.35 1833.78 L1268.35 1841.19 L1262.49 1841.19 L1262.49 1833.78 Z" fill="#000000" fill-rule="evenodd" fill-opacity="1" /><path clip-path="url(#clip410)" d="M1308.36 1854.5 Q1310.56 1850.55 1313.61 1848.67 Q1316.67 1846.79 1320.8 1846.79 Q1326.37 1846.79 1329.4 1850.71 Q1332.42 1854.59 1332.42 1861.78 L1332.42 1883.3 L1326.53 1883.3 L1326.53 1861.98 Q1326.53 1856.85 1324.72 1854.37 Q1322.9 1851.89 1319.18 1851.89 Q1314.63 1851.89 1311.99 1854.91 Q1309.35 1857.93 1309.35 1863.15 L1309.35 1883.3 L1303.46 1883.3 L1303.46 1861.98 Q1303.46 1856.82 1301.64 1854.37 Q1299.83 1851.89 1296.04 1851.89 Q1291.55 1851.89 1288.91 1854.94 Q1286.27 1857.97 1286.27 1863.15 L1286.27 1883.3 L1280.38 1883.3 L1280.38 1847.65 L1286.27 1847.65 L1286.27 1853.19 Q1288.28 1849.91 1291.08 1848.35 Q1293.88 1846.79 1297.73 1846.79 Q1301.61 1846.79 1304.32 1848.77 Q1307.05 1850.74 1308.36 1854.5 Z" fill="#000000" fill-rule="evenodd" fill-opacity="1" /><path clip-path="url(#clip410)" d="M1374.59 1864.01 L1374.59 1866.88 L1347.67 1866.88 Q1348.05 1872.92 1351.3 1876.11 Q1354.57 1879.26 1360.4 1879.26 Q1363.77 1879.26 1366.92 1878.43 Q1370.11 1877.6 1373.23 1875.95 L1373.23 1881.49 Q1370.07 1882.82 1366.76 1883.52 Q1363.45 1884.22 1360.05 1884.22 Q1351.52 1884.22 1346.52 1879.26 Q1341.56 1874.29 1341.56 1865.83 Q1341.56 1857.07 1346.27 1851.95 Q1351.01 1846.79 1359.03 1846.79 Q1366.22 1846.79 1370.39 1851.44 Q1374.59 1856.06 1374.59 1864.01 M1368.74 1862.29 Q1368.67 1857.49 1366.03 1854.62 Q1363.42 1851.76 1359.09 1851.76 Q1354.19 1851.76 1351.23 1854.53 Q1348.3 1857.3 1347.86 1862.33 L1368.74 1862.29 Z" fill="#000000" fill-rule="evenodd" fill-opacity="1" /><path clip-path="url(#clip410)" d="M1404.93 1847.65 L1410.78 1847.65 L1410.78 1883.3 L1404.93 1883.3 L1404.93 1847.65 M1404.93 1833.78 L1410.78 1833.78 L1410.78 1841.19 L1404.93 1841.19 L1404.93 1833.78 Z" fill="#000000" fill-rule="evenodd" fill-opacity="1" /><path clip-path="url(#clip410)" d="M1452.67 1861.78 L1452.67 1883.3 L1446.81 1883.3 L1446.81 1861.98 Q1446.81 1856.92 1444.84 1854.4 Q1442.87 1851.89 1438.92 1851.89 Q1434.18 1851.89 1431.44 1854.91 Q1428.7 1857.93 1428.7 1863.15 L1428.7 1883.3 L1422.81 1883.3 L1422.81 1847.65 L1428.7 1847.65 L1428.7 1853.19 Q1430.8 1849.98 1433.64 1848.39 Q1436.5 1846.79 1440.22 1846.79 Q1446.37 1846.79 1449.52 1850.61 Q1452.67 1854.4 1452.67 1861.78 Z" fill="#000000" fill-rule="evenodd" fill-opacity="1" /><path clip-path="url(#clip410)" d="M1478.8 1835.78 L1485.71 1835.78 L1498.88 1855.32 L1511.97 1835.78 L1518.87 1835.78 L1502.07 1860.67 L1502.07 1883.3 L1495.61 1883.3 L1495.61 1860.67 L1478.8 1835.78 Z" fill="#000000" fill-rule="evenodd" fill-opacity="1" /><path clip-path="url(#clip410)" d="M1546.72 1864.01 L1546.72 1866.88 L1519.8 1866.88 Q1520.18 1872.92 1523.42 1876.11 Q1526.7 1879.26 1532.53 1879.26 Q1535.9 1879.26 1539.05 1878.43 Q1542.24 1877.6 1545.35 1875.95 L1545.35 1881.49 Q1542.2 1882.82 1538.89 1883.52 Q1535.58 1884.22 1532.18 1884.22 Q1523.65 1884.22 1518.65 1879.26 Q1513.69 1874.29 1513.69 1865.83 Q1513.69 1857.07 1518.4 1851.95 Q1523.14 1846.79 1531.16 1846.79 Q1538.35 1846.79 1542.52 1851.44 Q1546.72 1856.06 1546.72 1864.01 M1540.87 1862.29 Q1540.8 1857.49 1538.16 1854.62 Q1535.55 1851.76 1531.22 1851.76 Q1526.32 1851.76 1523.36 1854.53 Q1520.43 1857.3 1519.99 1862.33 L1540.87 1862.29 Z" fill="#000000" fill-rule="evenodd" fill-opacity="1" /><path clip-path="url(#clip410)" d="M1572.54 1865.38 Q1565.44 1865.38 1562.7 1867 Q1559.96 1868.63 1559.96 1872.54 Q1559.96 1875.66 1562 1877.51 Q1564.07 1879.32 1567.6 1879.32 Q1572.47 1879.32 1575.4 1875.88 Q1578.36 1872.42 1578.36 1866.69 L1578.36 1865.38 L1572.54 1865.38 M1584.22 1862.96 L1584.22 1883.3 L1578.36 1883.3 L1578.36 1877.89 Q1576.36 1881.14 1573.36 1882.7 Q1570.37 1884.22 1566.04 1884.22 Q1560.57 1884.22 1557.32 1881.17 Q1554.11 1878.08 1554.11 1872.92 Q1554.11 1866.91 1558.12 1863.85 Q1562.16 1860.8 1570.15 1860.8 L1578.36 1860.8 L1578.36 1860.23 Q1578.36 1856.18 1575.69 1853.99 Q1573.05 1851.76 1568.24 1851.76 Q1565.18 1851.76 1562.29 1852.49 Q1559.39 1853.22 1556.72 1854.69 L1556.72 1849.28 Q1559.93 1848.03 1562.96 1847.43 Q1565.98 1846.79 1568.84 1846.79 Q1576.58 1846.79 1580.4 1850.8 Q1584.22 1854.81 1584.22 1862.96 Z" fill="#000000" fill-rule="evenodd" fill-opacity="1" /><path clip-path="url(#clip410)" d="M1616.94 1853.13 Q1615.95 1852.55 1614.77 1852.3 Q1613.63 1852.01 1612.23 1852.01 Q1607.26 1852.01 1604.59 1855.26 Q1601.95 1858.47 1601.95 1864.52 L1601.95 1883.3 L1596.06 1883.3 L1596.06 1847.65 L1601.95 1847.65 L1601.95 1853.19 Q1603.79 1849.94 1606.75 1848.39 Q1609.71 1846.79 1613.94 1846.79 Q1614.55 1846.79 1615.28 1846.89 Q1616.01 1846.95 1616.91 1847.11 L1616.94 1853.13 Z" fill="#000000" fill-rule="evenodd" fill-opacity="1" /><path clip-path="url(#clip410)" d="M1645.81 1848.7 L1645.81 1854.24 Q1643.32 1852.97 1640.65 1852.33 Q1637.98 1851.7 1635.11 1851.7 Q1630.75 1851.7 1628.55 1853.03 Q1626.39 1854.37 1626.39 1857.04 Q1626.39 1859.08 1627.95 1860.26 Q1629.51 1861.4 1634.22 1862.45 L1636.22 1862.9 Q1642.46 1864.24 1645.07 1866.69 Q1647.72 1869.11 1647.72 1873.47 Q1647.72 1878.43 1643.77 1881.33 Q1639.85 1884.22 1632.98 1884.22 Q1630.11 1884.22 1626.99 1883.65 Q1623.91 1883.11 1620.47 1882 L1620.47 1875.95 Q1623.72 1877.64 1626.87 1878.49 Q1630.02 1879.32 1633.11 1879.32 Q1637.24 1879.32 1639.47 1877.92 Q1641.7 1876.49 1641.7 1873.91 Q1641.7 1871.52 1640.08 1870.25 Q1638.48 1868.98 1633.04 1867.8 L1631.01 1867.32 Q1625.56 1866.18 1623.14 1863.82 Q1620.72 1861.43 1620.72 1857.3 Q1620.72 1852.27 1624.29 1849.53 Q1627.85 1846.79 1634.41 1846.79 Q1637.66 1846.79 1640.52 1847.27 Q1643.39 1847.75 1645.81 1848.7 Z" fill="#000000" fill-rule="evenodd" fill-opacity="1" /><polyline clip-path="url(#clip412)" style="stroke:#000000; stroke-linecap:round; stroke-linejoin:round; stroke-width:2; stroke-opacity:0.1; fill:none" points="
  225.307,1688.65 2640.76,1688.65 
  "/>
<polyline clip-path="url(#clip412)" style="stroke:#000000; stroke-linecap:round; stroke-linejoin:round; stroke-width:2; stroke-opacity:0.1; fill:none" points="
  225.307,1247.69 2640.76,1247.69 
  "/>
<polyline clip-path="url(#clip412)" style="stroke:#000000; stroke-linecap:round; stroke-linejoin:round; stroke-width:2; stroke-opacity:0.1; fill:none" points="
  225.307,806.727 2640.76,806.727 
  "/>
<polyline clip-path="url(#clip412)" style="stroke:#000000; stroke-linecap:round; stroke-linejoin:round; stroke-width:2; stroke-opacity:0.1; fill:none" points="
  225.307,365.763 2640.76,365.763 
  "/>
<polyline clip-path="url(#clip410)" style="stroke:#000000; stroke-linecap:round; stroke-linejoin:round; stroke-width:4; stroke-opacity:1; fill:none" points="
  225.307,1734.12 225.307,127.792 
  "/>
<polyline clip-path="url(#clip410)" style="stroke:#000000; stroke-linecap:round; stroke-linejoin:round; stroke-width:4; stroke-opacity:1; fill:none" points="
  225.307,1688.65 244.205,1688.65 
  "/>
<polyline clip-path="url(#clip410)" style="stroke:#000000; stroke-linecap:round; stroke-linejoin:round; stroke-width:4; stroke-opacity:1; fill:none" points="
  225.307,1247.69 244.205,1247.69 
  "/>
<polyline clip-path="url(#clip410)" style="stroke:#000000; stroke-linecap:round; stroke-linejoin:round; stroke-width:4; stroke-opacity:1; fill:none" points="
  225.307,806.727 244.205,806.727 
  "/>
<polyline clip-path="url(#clip410)" style="stroke:#000000; stroke-linecap:round; stroke-linejoin:round; stroke-width:4; stroke-opacity:1; fill:none" points="
  225.307,365.763 244.205,365.763 
  "/>
<path clip-path="url(#clip410)" d="M118.622 1702 L126.261 1702 L126.261 1675.63 L117.951 1677.3 L117.951 1673.04 L126.214 1671.37 L130.89 1671.37 L130.89 1702 L138.529 1702 L138.529 1705.93 L118.622 1705.93 L118.622 1702 Z" fill="#000000" fill-rule="evenodd" fill-opacity="1" /><path clip-path="url(#clip410)" d="M147.974 1700.06 L152.858 1700.06 L152.858 1705.93 L147.974 1705.93 L147.974 1700.06 Z" fill="#000000" fill-rule="evenodd" fill-opacity="1" /><path clip-path="url(#clip410)" d="M173.043 1674.45 Q169.432 1674.45 167.603 1678.02 Q165.798 1681.56 165.798 1688.69 Q165.798 1695.8 167.603 1699.36 Q169.432 1702.9 173.043 1702.9 Q176.677 1702.9 178.483 1699.36 Q180.311 1695.8 180.311 1688.69 Q180.311 1681.56 178.483 1678.02 Q176.677 1674.45 173.043 1674.45 M173.043 1670.75 Q178.853 1670.75 181.909 1675.36 Q184.987 1679.94 184.987 1688.69 Q184.987 1697.42 181.909 1702.02 Q178.853 1706.61 173.043 1706.61 Q167.233 1706.61 164.154 1702.02 Q161.098 1697.42 161.098 1688.69 Q161.098 1679.94 164.154 1675.36 Q167.233 1670.75 173.043 1670.75 Z" fill="#000000" fill-rule="evenodd" fill-opacity="1" /><path clip-path="url(#clip410)" d="M119.617 1261.04 L127.256 1261.04 L127.256 1234.67 L118.946 1236.34 L118.946 1232.08 L127.21 1230.41 L131.886 1230.41 L131.886 1261.04 L139.525 1261.04 L139.525 1264.97 L119.617 1264.97 L119.617 1261.04 Z" fill="#000000" fill-rule="evenodd" fill-opacity="1" /><path clip-path="url(#clip410)" d="M148.969 1259.09 L153.853 1259.09 L153.853 1264.97 L148.969 1264.97 L148.969 1259.09 Z" fill="#000000" fill-rule="evenodd" fill-opacity="1" /><path clip-path="url(#clip410)" d="M164.085 1230.41 L182.441 1230.41 L182.441 1234.35 L168.367 1234.35 L168.367 1242.82 Q169.385 1242.47 170.404 1242.31 Q171.422 1242.12 172.441 1242.12 Q178.228 1242.12 181.608 1245.3 Q184.987 1248.47 184.987 1253.88 Q184.987 1259.46 181.515 1262.56 Q178.043 1265.64 171.723 1265.64 Q169.547 1265.64 167.279 1265.27 Q165.034 1264.9 162.626 1264.16 L162.626 1259.46 Q164.71 1260.6 166.932 1261.15 Q169.154 1261.71 171.631 1261.71 Q175.635 1261.71 177.973 1259.6 Q180.311 1257.49 180.311 1253.88 Q180.311 1250.27 177.973 1248.17 Q175.635 1246.06 171.631 1246.06 Q169.756 1246.06 167.881 1246.48 Q166.029 1246.89 164.085 1247.77 L164.085 1230.41 Z" fill="#000000" fill-rule="evenodd" fill-opacity="1" /><path clip-path="url(#clip410)" d="M121.839 820.072 L138.159 820.072 L138.159 824.007 L116.214 824.007 L116.214 820.072 Q118.876 817.317 123.46 812.688 Q128.066 808.035 129.247 806.692 Q131.492 804.169 132.372 802.433 Q133.275 800.674 133.275 798.984 Q133.275 796.229 131.33 794.493 Q129.409 792.757 126.307 792.757 Q124.108 792.757 121.654 793.521 Q119.224 794.285 116.446 795.836 L116.446 791.114 Q119.27 789.979 121.724 789.401 Q124.177 788.822 126.214 788.822 Q131.585 788.822 134.779 791.507 Q137.974 794.192 137.974 798.683 Q137.974 800.813 137.163 802.734 Q136.376 804.632 134.27 807.225 Q133.691 807.896 130.589 811.113 Q127.488 814.308 121.839 820.072 Z" fill="#000000" fill-rule="evenodd" fill-opacity="1" /><path clip-path="url(#clip410)" d="M147.974 818.127 L152.858 818.127 L152.858 824.007 L147.974 824.007 L147.974 818.127 Z" fill="#000000" fill-rule="evenodd" fill-opacity="1" /><path clip-path="url(#clip410)" d="M173.043 792.526 Q169.432 792.526 167.603 796.09 Q165.798 799.632 165.798 806.762 Q165.798 813.868 167.603 817.433 Q169.432 820.975 173.043 820.975 Q176.677 820.975 178.483 817.433 Q180.311 813.868 180.311 806.762 Q180.311 799.632 178.483 796.09 Q176.677 792.526 173.043 792.526 M173.043 788.822 Q178.853 788.822 181.909 793.428 Q184.987 798.012 184.987 806.762 Q184.987 815.488 181.909 820.095 Q178.853 824.678 173.043 824.678 Q167.233 824.678 164.154 820.095 Q161.098 815.488 161.098 806.762 Q161.098 798.012 164.154 793.428 Q167.233 788.822 173.043 788.822 Z" fill="#000000" fill-rule="evenodd" fill-opacity="1" /><path clip-path="url(#clip410)" d="M122.835 379.108 L139.154 379.108 L139.154 383.043 L117.21 383.043 L117.21 379.108 Q119.872 376.353 124.455 371.724 Q129.062 367.071 130.242 365.728 Q132.488 363.205 133.367 361.469 Q134.27 359.71 134.27 358.02 Q134.27 355.265 132.325 353.529 Q130.404 351.793 127.302 351.793 Q125.103 351.793 122.65 352.557 Q120.219 353.321 117.441 354.872 L117.441 350.15 Q120.265 349.015 122.719 348.437 Q125.173 347.858 127.21 347.858 Q132.58 347.858 135.775 350.543 Q138.969 353.228 138.969 357.719 Q138.969 359.849 138.159 361.77 Q137.372 363.668 135.265 366.261 Q134.687 366.932 131.585 370.149 Q128.483 373.344 122.835 379.108 Z" fill="#000000" fill-rule="evenodd" fill-opacity="1" /><path clip-path="url(#clip410)" d="M148.969 377.163 L153.853 377.163 L153.853 383.043 L148.969 383.043 L148.969 377.163 Z" fill="#000000" fill-rule="evenodd" fill-opacity="1" /><path clip-path="url(#clip410)" d="M164.085 348.483 L182.441 348.483 L182.441 352.418 L168.367 352.418 L168.367 360.89 Q169.385 360.543 170.404 360.381 Q171.422 360.196 172.441 360.196 Q178.228 360.196 181.608 363.367 Q184.987 366.538 184.987 371.955 Q184.987 377.534 181.515 380.636 Q178.043 383.714 171.723 383.714 Q169.547 383.714 167.279 383.344 Q165.034 382.973 162.626 382.233 L162.626 377.534 Q164.71 378.668 166.932 379.223 Q169.154 379.779 171.631 379.779 Q175.635 379.779 177.973 377.673 Q180.311 375.566 180.311 371.955 Q180.311 368.344 177.973 366.237 Q175.635 364.131 171.631 364.131 Q169.756 364.131 167.881 364.548 Q166.029 364.964 164.085 365.844 L164.085 348.483 Z" fill="#000000" fill-rule="evenodd" fill-opacity="1" /><path clip-path="url(#clip410)" d="M38.9447 1213.66 L56.3549 1213.66 L56.3549 1203.34 Q56.3549 1198.16 54.2224 1195.67 Q52.0581 1193.16 47.6339 1193.16 Q43.1779 1193.16 41.0772 1195.67 Q38.9447 1198.16 38.9447 1203.34 L38.9447 1213.66 M19.402 1213.66 L33.7248 1213.66 L33.7248 1204.14 Q33.7248 1199.43 31.9743 1197.14 Q30.1919 1194.81 26.5634 1194.81 Q22.9668 1194.81 21.1844 1197.14 Q19.402 1199.43 19.402 1204.14 L19.402 1213.66 M14.1184 1220.08 L14.1184 1203.66 Q14.1184 1196.31 17.174 1192.33 Q20.2295 1188.35 25.8632 1188.35 Q30.2237 1188.35 32.8018 1190.39 Q35.3799 1192.43 36.0165 1196.37 Q37.035 1191.63 40.2815 1189.02 Q43.4962 1186.38 48.3341 1186.38 Q54.6998 1186.38 58.1691 1190.71 Q61.6384 1195.04 61.6384 1203.02 L61.6384 1220.08 L14.1184 1220.08 Z" fill="#000000" fill-rule="evenodd" fill-opacity="1" /><path clip-path="url(#clip410)" d="M43.719 1159.42 Q43.719 1166.52 45.3422 1169.25 Q46.9655 1171.99 50.8804 1171.99 Q53.9996 1171.99 55.8457 1169.96 Q57.6599 1167.89 57.6599 1164.35 Q57.6599 1159.48 54.2224 1156.56 Q50.7531 1153.6 45.0239 1153.6 L43.719 1153.6 L43.719 1159.42 M41.3 1147.74 L61.6384 1147.74 L61.6384 1153.6 L56.2276 1153.6 Q59.4741 1155.6 61.0337 1158.59 Q62.5615 1161.58 62.5615 1165.91 Q62.5615 1171.39 59.5059 1174.63 Q56.4186 1177.85 51.2623 1177.85 Q45.2467 1177.85 42.1912 1173.84 Q39.1357 1169.8 39.1357 1161.81 L39.1357 1153.6 L38.5628 1153.6 Q34.5205 1153.6 32.3244 1156.27 Q30.0964 1158.91 30.0964 1163.72 Q30.0964 1166.77 30.8284 1169.67 Q31.5605 1172.56 33.0246 1175.24 L27.6137 1175.24 Q26.3724 1172.02 25.7677 1169 Q25.1311 1165.98 25.1311 1163.11 Q25.1311 1155.38 29.1415 1151.56 Q33.1519 1147.74 41.3 1147.74 Z" fill="#000000" fill-rule="evenodd" fill-opacity="1" /><path clip-path="url(#clip410)" d="M12.1132 1135.68 L12.1132 1129.82 L61.6384 1129.82 L61.6384 1135.68 L12.1132 1135.68 Z" fill="#000000" fill-rule="evenodd" fill-opacity="1" /><path clip-path="url(#clip410)" d="M43.719 1101.36 Q43.719 1108.46 45.3422 1111.2 Q46.9655 1113.94 50.8804 1113.94 Q53.9996 1113.94 55.8457 1111.9 Q57.6599 1109.83 57.6599 1106.3 Q57.6599 1101.43 54.2224 1098.5 Q50.7531 1095.54 45.0239 1095.54 L43.719 1095.54 L43.719 1101.36 M41.3 1089.68 L61.6384 1089.68 L61.6384 1095.54 L56.2276 1095.54 Q59.4741 1097.55 61.0337 1100.54 Q62.5615 1103.53 62.5615 1107.86 Q62.5615 1113.33 59.5059 1116.58 Q56.4186 1119.79 51.2623 1119.79 Q45.2467 1119.79 42.1912 1115.78 Q39.1357 1111.74 39.1357 1103.75 L39.1357 1095.54 L38.5628 1095.54 Q34.5205 1095.54 32.3244 1098.21 Q30.0964 1100.86 30.0964 1105.66 Q30.0964 1108.72 30.8284 1111.61 Q31.5605 1114.51 33.0246 1117.18 L27.6137 1117.18 Q26.3724 1113.97 25.7677 1110.94 Q25.1311 1107.92 25.1311 1105.06 Q25.1311 1097.32 29.1415 1093.5 Q33.1519 1089.68 41.3 1089.68 Z" fill="#000000" fill-rule="evenodd" fill-opacity="1" /><path clip-path="url(#clip410)" d="M40.1224 1047.99 L61.6384 1047.99 L61.6384 1053.84 L40.3133 1053.84 Q35.2526 1053.84 32.7381 1055.82 Q30.2237 1057.79 30.2237 1061.74 Q30.2237 1066.48 33.2474 1069.22 Q36.2711 1071.95 41.491 1071.95 L61.6384 1071.95 L61.6384 1077.84 L25.9905 1077.84 L25.9905 1071.95 L31.5287 1071.95 Q28.314 1069.85 26.7225 1067.02 Q25.1311 1064.16 25.1311 1060.43 Q25.1311 1054.29 28.9505 1051.14 Q32.7381 1047.99 40.1224 1047.99 Z" fill="#000000" fill-rule="evenodd" fill-opacity="1" /><path clip-path="url(#clip410)" d="M27.3591 1010.65 L32.8336 1010.65 Q31.465 1013.14 30.7966 1015.65 Q30.0964 1018.13 30.0964 1020.68 Q30.0964 1026.38 33.7248 1029.53 Q37.3214 1032.68 43.8463 1032.68 Q50.3711 1032.68 53.9996 1029.53 Q57.5962 1026.38 57.5962 1020.68 Q57.5962 1018.13 56.9278 1015.65 Q56.2276 1013.14 54.859 1010.65 L60.2698 1010.65 Q61.4156 1013.1 61.9886 1015.75 Q62.5615 1018.36 62.5615 1021.32 Q62.5615 1029.37 57.5007 1034.11 Q52.44 1038.85 43.8463 1038.85 Q35.1253 1038.85 30.1282 1034.08 Q25.1311 1029.27 25.1311 1020.93 Q25.1311 1018.23 25.704 1015.65 Q26.2451 1013.07 27.3591 1010.65 Z" fill="#000000" fill-rule="evenodd" fill-opacity="1" /><path clip-path="url(#clip410)" d="M42.3504 969.976 L45.2149 969.976 L45.2149 996.903 Q51.2623 996.521 54.4452 993.275 Q57.5962 989.996 57.5962 984.172 Q57.5962 980.798 56.7687 977.647 Q55.9411 974.464 54.2861 971.345 L59.8242 971.345 Q61.161 974.496 61.8612 977.806 Q62.5615 981.116 62.5615 984.522 Q62.5615 993.052 57.5962 998.049 Q52.631 1003.01 44.1646 1003.01 Q35.4117 1003.01 30.2873 998.304 Q25.1311 993.561 25.1311 985.54 Q25.1311 978.347 29.7781 974.178 Q34.3932 969.976 42.3504 969.976 M40.6316 975.833 Q35.8255 975.896 32.9609 978.538 Q30.0964 981.148 30.0964 985.477 Q30.0964 990.378 32.8654 993.338 Q35.6345 996.267 40.6634 996.712 L40.6316 975.833 Z" fill="#000000" fill-rule="evenodd" fill-opacity="1" /><path clip-path="url(#clip410)" d="M25.9905 939.644 L25.9905 933.787 L61.6384 933.787 L61.6384 939.644 L25.9905 939.644 M12.1132 939.644 L12.1132 933.787 L19.5293 933.787 L19.5293 939.644 L12.1132 939.644 Z" fill="#000000" fill-rule="evenodd" fill-opacity="1" /><path clip-path="url(#clip410)" d="M40.1224 891.901 L61.6384 891.901 L61.6384 897.757 L40.3133 897.757 Q35.2526 897.757 32.7381 899.731 Q30.2237 901.704 30.2237 905.651 Q30.2237 910.393 33.2474 913.131 Q36.2711 915.868 41.491 915.868 L61.6384 915.868 L61.6384 921.756 L25.9905 921.756 L25.9905 915.868 L31.5287 915.868 Q28.314 913.767 26.7225 910.934 Q25.1311 908.07 25.1311 904.346 Q25.1311 898.203 28.9505 895.052 Q32.7381 891.901 40.1224 891.901 Z" fill="#000000" fill-rule="evenodd" fill-opacity="1" /><path clip-path="url(#clip410)" d="M19.402 852.816 L56.3549 852.816 L56.3549 845.049 Q56.3549 835.214 51.8989 830.663 Q47.4429 826.08 37.8307 826.08 Q28.2821 826.08 23.858 830.663 Q19.402 835.214 19.402 845.049 L19.402 852.816 M14.1184 859.245 L14.1184 846.036 Q14.1184 832.222 19.8794 825.761 Q25.6085 819.3 37.8307 819.3 Q50.1165 819.3 55.8775 825.793 Q61.6384 832.286 61.6384 846.036 L61.6384 859.245 L14.1184 859.245 Z" fill="#000000" fill-rule="evenodd" fill-opacity="1" /><path clip-path="url(#clip410)" d="M30.0964 795.492 Q30.0964 800.203 33.7885 802.94 Q37.4488 805.677 43.8463 805.677 Q50.2438 805.677 53.9359 802.972 Q57.5962 800.235 57.5962 795.492 Q57.5962 790.814 53.9041 788.076 Q50.212 785.339 43.8463 785.339 Q37.5124 785.339 33.8203 788.076 Q30.0964 790.814 30.0964 795.492 M25.1311 795.492 Q25.1311 787.853 30.0964 783.493 Q35.0616 779.132 43.8463 779.132 Q52.5991 779.132 57.5962 783.493 Q62.5615 787.853 62.5615 795.492 Q62.5615 803.163 57.5962 807.524 Q52.5991 811.852 43.8463 811.852 Q35.0616 811.852 30.0964 807.524 Q25.1311 803.163 25.1311 795.492 Z" fill="#000000" fill-rule="evenodd" fill-opacity="1" /><path clip-path="url(#clip410)" d="M12.1132 769.425 L12.1132 763.568 L61.6384 763.568 L61.6384 769.425 L12.1132 769.425 Z" fill="#000000" fill-rule="evenodd" fill-opacity="1" /><path clip-path="url(#clip410)" d="M12.1132 751.314 L12.1132 745.458 L61.6384 745.458 L61.6384 751.314 L12.1132 751.314 Z" fill="#000000" fill-rule="evenodd" fill-opacity="1" /><path clip-path="url(#clip410)" d="M43.719 717.003 Q43.719 724.101 45.3422 726.838 Q46.9655 729.575 50.8804 729.575 Q53.9996 729.575 55.8457 727.538 Q57.6599 725.47 57.6599 721.937 Q57.6599 717.067 54.2224 714.139 Q50.7531 711.179 45.0239 711.179 L43.719 711.179 L43.719 717.003 M41.3 705.322 L61.6384 705.322 L61.6384 711.179 L56.2276 711.179 Q59.4741 713.184 61.0337 716.176 Q62.5615 719.167 62.5615 723.496 Q62.5615 728.971 59.5059 732.217 Q56.4186 735.432 51.2623 735.432 Q45.2467 735.432 42.1912 731.421 Q39.1357 727.379 39.1357 719.39 L39.1357 711.179 L38.5628 711.179 Q34.5205 711.179 32.3244 713.852 Q30.0964 716.494 30.0964 721.3 Q30.0964 724.356 30.8284 727.252 Q31.5605 730.148 33.0246 732.822 L27.6137 732.822 Q26.3724 729.607 25.7677 726.584 Q25.1311 723.56 25.1311 720.695 Q25.1311 712.961 29.1415 709.142 Q33.1519 705.322 41.3 705.322 Z" fill="#000000" fill-rule="evenodd" fill-opacity="1" /><path clip-path="url(#clip410)" d="M31.465 672.602 Q30.8921 673.589 30.6375 674.767 Q30.351 675.913 30.351 677.313 Q30.351 682.278 33.5975 684.952 Q36.8122 687.594 42.8596 687.594 L61.6384 687.594 L61.6384 693.482 L25.9905 693.482 L25.9905 687.594 L31.5287 687.594 Q28.2821 685.748 26.7225 682.787 Q25.1311 679.827 25.1311 675.594 Q25.1311 674.989 25.2266 674.257 Q25.2903 673.525 25.4494 672.634 L31.465 672.602 Z" fill="#000000" fill-rule="evenodd" fill-opacity="1" /><path clip-path="url(#clip410)" d="M27.0408 643.734 L32.579 643.734 Q31.3059 646.216 30.6693 648.89 Q30.0327 651.564 30.0327 654.428 Q30.0327 658.789 31.3695 660.985 Q32.7063 663.149 35.3799 663.149 Q37.4169 663.149 38.5946 661.59 Q39.7404 660.03 40.7908 655.319 L41.2364 653.314 Q42.5732 647.076 45.0239 644.466 Q47.4429 641.824 51.8034 641.824 Q56.7687 641.824 59.6651 645.771 Q62.5615 649.686 62.5615 656.561 Q62.5615 659.425 61.9886 662.545 Q61.4475 665.632 60.3335 669.069 L54.2861 669.069 Q55.973 665.823 56.8323 662.672 Q57.6599 659.521 57.6599 656.433 Q57.6599 652.296 56.2594 650.068 Q54.8271 647.84 52.249 647.84 Q49.8619 647.84 48.5887 649.463 Q47.3156 651.054 46.1379 656.497 L45.6605 658.534 Q44.5147 663.977 42.1594 666.396 Q39.7722 668.815 35.6345 668.815 Q30.6056 668.815 27.8684 665.25 Q25.1311 661.685 25.1311 655.128 Q25.1311 651.882 25.6085 649.017 Q26.086 646.153 27.0408 643.734 Z" fill="#000000" fill-rule="evenodd" fill-opacity="1" /><path clip-path="url(#clip410)" d="M1086.72 16.7545 L1086.72 25.383 Q1082.59 21.5346 1077.89 19.6307 Q1073.23 17.7268 1067.96 17.7268 Q1057.59 17.7268 1052.08 24.0867 Q1046.58 30.4061 1046.58 42.3968 Q1046.58 54.3469 1052.08 60.7069 Q1057.59 67.0263 1067.96 67.0263 Q1073.23 67.0263 1077.89 65.1223 Q1082.59 63.2184 1086.72 59.3701 L1086.72 67.9175 Q1082.43 70.8341 1077.61 72.2924 Q1072.83 73.7508 1067.48 73.7508 Q1053.75 73.7508 1045.85 65.3654 Q1037.95 56.9395 1037.95 42.3968 Q1037.95 27.8135 1045.85 19.4281 Q1053.75 11.0023 1067.48 11.0023 Q1072.91 11.0023 1077.69 12.4606 Q1082.51 13.8784 1086.72 16.7545 Z" fill="#000000" fill-rule="evenodd" fill-opacity="1" /><path clip-path="url(#clip410)" d="M1116.62 32.4315 Q1110.62 32.4315 1107.14 37.1306 Q1103.65 41.7891 1103.65 49.9314 Q1103.65 58.0738 1107.1 62.7728 Q1110.58 67.4314 1116.62 67.4314 Q1122.57 67.4314 1126.05 62.7323 Q1129.54 58.0333 1129.54 49.9314 Q1129.54 41.8701 1126.05 37.1711 Q1122.57 32.4315 1116.62 32.4315 M1116.62 26.1121 Q1126.34 26.1121 1131.89 32.4315 Q1137.44 38.7509 1137.44 49.9314 Q1137.44 61.0714 1131.89 67.4314 Q1126.34 73.7508 1116.62 73.7508 Q1106.85 73.7508 1101.3 67.4314 Q1095.79 61.0714 1095.79 49.9314 Q1095.79 38.7509 1101.3 32.4315 Q1106.85 26.1121 1116.62 26.1121 Z" fill="#000000" fill-rule="evenodd" fill-opacity="1" /><path clip-path="url(#clip410)" d="M1185.12 35.9153 Q1187.91 30.8922 1191.8 28.5022 Q1195.69 26.1121 1200.96 26.1121 Q1208.04 26.1121 1211.89 31.0947 Q1215.74 36.0368 1215.74 45.1919 L1215.74 72.576 L1208.25 72.576 L1208.25 45.4349 Q1208.25 38.913 1205.94 35.7533 Q1203.63 32.5936 1198.89 32.5936 Q1193.1 32.5936 1189.73 36.4419 Q1186.37 40.2903 1186.37 46.9338 L1186.37 72.576 L1178.88 72.576 L1178.88 45.4349 Q1178.88 38.8725 1176.57 35.7533 Q1174.26 32.5936 1169.44 32.5936 Q1163.73 32.5936 1160.37 36.4824 Q1157 40.3308 1157 46.9338 L1157 72.576 L1149.51 72.576 L1149.51 27.2059 L1157 27.2059 L1157 34.2544 Q1159.56 30.082 1163.12 28.0971 Q1166.68 26.1121 1171.59 26.1121 Q1176.53 26.1121 1179.97 28.6237 Q1183.46 31.1352 1185.12 35.9153 Z" fill="#000000" fill-rule="evenodd" fill-opacity="1" /><path clip-path="url(#clip410)" d="M1237.82 65.7705 L1237.82 89.8329 L1230.32 89.8329 L1230.32 27.2059 L1237.82 27.2059 L1237.82 34.0924 Q1240.17 30.0415 1243.73 28.0971 Q1247.34 26.1121 1252.32 26.1121 Q1260.58 26.1121 1265.73 32.6746 Q1270.91 39.2371 1270.91 49.9314 Q1270.91 60.6258 1265.73 67.1883 Q1260.58 73.7508 1252.32 73.7508 Q1247.34 73.7508 1243.73 71.8063 Q1240.17 69.8214 1237.82 65.7705 M1263.18 49.9314 Q1263.18 41.7081 1259.77 37.0496 Q1256.41 32.3505 1250.5 32.3505 Q1244.58 32.3505 1241.18 37.0496 Q1237.82 41.7081 1237.82 49.9314 Q1237.82 58.1548 1241.18 62.8538 Q1244.58 67.5124 1250.5 67.5124 Q1256.41 67.5124 1259.77 62.8538 Q1263.18 58.1548 1263.18 49.9314 Z" fill="#000000" fill-rule="evenodd" fill-opacity="1" /><path clip-path="url(#clip410)" d="M1300.85 32.4315 Q1294.86 32.4315 1291.37 37.1306 Q1287.89 41.7891 1287.89 49.9314 Q1287.89 58.0738 1291.33 62.7728 Q1294.81 67.4314 1300.85 67.4314 Q1306.81 67.4314 1310.29 62.7323 Q1313.77 58.0333 1313.77 49.9314 Q1313.77 41.8701 1310.29 37.1711 Q1306.81 32.4315 1300.85 32.4315 M1300.85 26.1121 Q1310.57 26.1121 1316.12 32.4315 Q1321.67 38.7509 1321.67 49.9314 Q1321.67 61.0714 1316.12 67.4314 Q1310.57 73.7508 1300.85 73.7508 Q1291.09 73.7508 1285.54 67.4314 Q1280.03 61.0714 1280.03 49.9314 Q1280.03 38.7509 1285.54 32.4315 Q1291.09 26.1121 1300.85 26.1121 Z" fill="#000000" fill-rule="evenodd" fill-opacity="1" /><path clip-path="url(#clip410)" d="M1333.26 54.671 L1333.26 27.2059 L1340.71 27.2059 L1340.71 54.3874 Q1340.71 60.8284 1343.22 64.0691 Q1345.73 67.2693 1350.76 67.2693 Q1356.79 67.2693 1360.28 63.421 Q1363.8 59.5726 1363.8 52.9291 L1363.8 27.2059 L1371.26 27.2059 L1371.26 72.576 L1363.8 72.576 L1363.8 65.6084 Q1361.09 69.7404 1357.48 71.7658 Q1353.92 73.7508 1349.18 73.7508 Q1341.36 73.7508 1337.31 68.8897 Q1333.26 64.0286 1333.26 54.671 M1352.01 26.1121 L1352.01 26.1121 Z" fill="#000000" fill-rule="evenodd" fill-opacity="1" /><path clip-path="url(#clip410)" d="M1424.32 45.1919 L1424.32 72.576 L1416.87 72.576 L1416.87 45.4349 Q1416.87 38.994 1414.36 35.7938 Q1411.85 32.5936 1406.82 32.5936 Q1400.79 32.5936 1397.3 36.4419 Q1393.82 40.2903 1393.82 46.9338 L1393.82 72.576 L1386.32 72.576 L1386.32 27.2059 L1393.82 27.2059 L1393.82 34.2544 Q1396.49 30.163 1400.1 28.1376 Q1403.74 26.1121 1408.48 26.1121 Q1416.3 26.1121 1420.31 30.9732 Q1424.32 35.7938 1424.32 45.1919 Z" fill="#000000" fill-rule="evenodd" fill-opacity="1" /><path clip-path="url(#clip410)" d="M1469.04 34.0924 L1469.04 9.54393 L1476.5 9.54393 L1476.5 72.576 L1469.04 72.576 L1469.04 65.7705 Q1466.69 69.8214 1463.09 71.8063 Q1459.52 73.7508 1454.5 73.7508 Q1446.28 73.7508 1441.09 67.1883 Q1435.95 60.6258 1435.95 49.9314 Q1435.95 39.2371 1441.09 32.6746 Q1446.28 26.1121 1454.5 26.1121 Q1459.52 26.1121 1463.09 28.0971 Q1466.69 30.0415 1469.04 34.0924 M1443.64 49.9314 Q1443.64 58.1548 1447.01 62.8538 Q1450.41 67.5124 1456.32 67.5124 Q1462.24 67.5124 1465.64 62.8538 Q1469.04 58.1548 1469.04 49.9314 Q1469.04 41.7081 1465.64 37.0496 Q1462.24 32.3505 1456.32 32.3505 Q1450.41 32.3505 1447.01 37.0496 Q1443.64 41.7081 1443.64 49.9314 Z" fill="#000000" fill-rule="evenodd" fill-opacity="1" /><path clip-path="url(#clip410)" d="M1518.55 12.096 L1526.73 12.096 L1526.73 72.576 L1518.55 72.576 L1518.55 12.096 Z" fill="#000000" fill-rule="evenodd" fill-opacity="1" /><path clip-path="url(#clip410)" d="M1580.4 45.1919 L1580.4 72.576 L1572.95 72.576 L1572.95 45.4349 Q1572.95 38.994 1570.44 35.7938 Q1567.93 32.5936 1562.9 32.5936 Q1556.87 32.5936 1553.38 36.4419 Q1549.9 40.2903 1549.9 46.9338 L1549.9 72.576 L1542.41 72.576 L1542.41 27.2059 L1549.9 27.2059 L1549.9 34.2544 Q1552.57 30.163 1556.18 28.1376 Q1559.82 26.1121 1564.56 26.1121 Q1572.38 26.1121 1576.39 30.9732 Q1580.4 35.7938 1580.4 45.1919 Z" fill="#000000" fill-rule="evenodd" fill-opacity="1" /><path clip-path="url(#clip410)" d="M1602.64 14.324 L1602.64 27.2059 L1618 27.2059 L1618 32.9987 L1602.64 32.9987 L1602.64 57.6282 Q1602.64 63.1779 1604.14 64.7578 Q1605.68 66.3376 1610.34 66.3376 L1618 66.3376 L1618 72.576 L1610.34 72.576 Q1601.71 72.576 1598.43 69.3758 Q1595.15 66.1351 1595.15 57.6282 L1595.15 32.9987 L1589.68 32.9987 L1589.68 27.2059 L1595.15 27.2059 L1595.15 14.324 L1602.64 14.324 Z" fill="#000000" fill-rule="evenodd" fill-opacity="1" /><path clip-path="url(#clip410)" d="M1666.61 48.0275 L1666.61 51.6733 L1632.34 51.6733 Q1632.82 59.3701 1636.95 63.421 Q1641.13 67.4314 1648.54 67.4314 Q1652.83 67.4314 1656.84 66.3781 Q1660.89 65.3249 1664.86 63.2184 L1664.86 70.267 Q1660.85 71.9684 1656.64 72.8596 Q1652.43 73.7508 1648.09 73.7508 Q1637.24 73.7508 1630.88 67.4314 Q1624.56 61.1119 1624.56 50.3365 Q1624.56 39.1965 1630.55 32.6746 Q1636.59 26.1121 1646.8 26.1121 Q1655.95 26.1121 1661.26 32.0264 Q1666.61 37.9003 1666.61 48.0275 M1659.15 45.84 Q1659.07 39.7232 1655.71 36.0774 Q1652.39 32.4315 1646.88 32.4315 Q1640.64 32.4315 1636.87 35.9558 Q1633.15 39.4801 1632.58 45.8805 L1659.15 45.84 Z" fill="#000000" fill-rule="evenodd" fill-opacity="1" /><path clip-path="url(#clip410)" d="M1705.13 34.1734 Q1703.88 33.4443 1702.38 33.1202 Q1700.92 32.7556 1699.14 32.7556 Q1692.82 32.7556 1689.41 36.8875 Q1686.05 40.9789 1686.05 48.6757 L1686.05 72.576 L1678.56 72.576 L1678.56 27.2059 L1686.05 27.2059 L1686.05 34.2544 Q1688.4 30.1225 1692.17 28.1376 Q1695.94 26.1121 1701.32 26.1121 Q1702.09 26.1121 1703.02 26.2337 Q1703.96 26.3147 1705.09 26.5172 L1705.13 34.1734 Z" fill="#000000" fill-rule="evenodd" fill-opacity="1" /><path clip-path="url(#clip410)" d="M1749.93 48.0275 L1749.93 51.6733 L1715.66 51.6733 Q1716.15 59.3701 1720.28 63.421 Q1724.45 67.4314 1731.87 67.4314 Q1736.16 67.4314 1740.17 66.3781 Q1744.22 65.3249 1748.19 63.2184 L1748.19 70.267 Q1744.18 71.9684 1739.97 72.8596 Q1735.76 73.7508 1731.42 73.7508 Q1720.56 73.7508 1714.2 67.4314 Q1707.89 61.1119 1707.89 50.3365 Q1707.89 39.1965 1713.88 32.6746 Q1719.92 26.1121 1730.12 26.1121 Q1739.28 26.1121 1744.59 32.0264 Q1749.93 37.9003 1749.93 48.0275 M1742.48 45.84 Q1742.4 39.7232 1739.04 36.0774 Q1735.72 32.4315 1730.21 32.4315 Q1723.97 32.4315 1720.2 35.9558 Q1716.47 39.4801 1715.91 45.8805 L1742.48 45.84 Z" fill="#000000" fill-rule="evenodd" fill-opacity="1" /><path clip-path="url(#clip410)" d="M1791.09 28.5427 L1791.09 35.5912 Q1787.93 33.9709 1784.53 33.1607 Q1781.13 32.3505 1777.48 32.3505 Q1771.93 32.3505 1769.14 34.0519 Q1766.38 35.7533 1766.38 39.156 Q1766.38 41.7486 1768.37 43.2475 Q1770.35 44.7058 1776.35 46.0426 L1778.9 46.6097 Q1786.84 48.3111 1790.16 51.4303 Q1793.52 54.509 1793.52 60.0587 Q1793.52 66.3781 1788.5 70.0644 Q1783.52 73.7508 1774.77 73.7508 Q1771.12 73.7508 1767.15 73.0216 Q1763.22 72.3329 1758.85 70.9151 L1758.85 63.2184 Q1762.98 65.3654 1766.99 66.4591 Q1771 67.5124 1774.93 67.5124 Q1780.19 67.5124 1783.03 65.73 Q1785.87 63.9071 1785.87 60.6258 Q1785.87 57.5877 1783.8 55.9673 Q1781.77 54.3469 1774.85 52.8481 L1772.25 52.2405 Q1765.33 50.7821 1762.25 47.7845 Q1759.17 44.7463 1759.17 39.4801 Q1759.17 33.0797 1763.71 29.5959 Q1768.24 26.1121 1776.59 26.1121 Q1780.72 26.1121 1784.37 26.7198 Q1788.01 27.3274 1791.09 28.5427 Z" fill="#000000" fill-rule="evenodd" fill-opacity="1" /><path clip-path="url(#clip410)" d="M1812.76 14.324 L1812.76 27.2059 L1828.12 27.2059 L1828.12 32.9987 L1812.76 32.9987 L1812.76 57.6282 Q1812.76 63.1779 1814.26 64.7578 Q1815.8 66.3376 1820.46 66.3376 L1828.12 66.3376 L1828.12 72.576 L1820.46 72.576 Q1811.83 72.576 1808.55 69.3758 Q1805.27 66.1351 1805.27 57.6282 L1805.27 32.9987 L1799.8 32.9987 L1799.8 27.2059 L1805.27 27.2059 L1805.27 14.324 L1812.76 14.324 Z" fill="#000000" fill-rule="evenodd" fill-opacity="1" /><polyline clip-path="url(#clip412)" style="stroke:#009af9; stroke-linecap:round; stroke-linejoin:round; stroke-width:8; stroke-opacity:1; fill:none" points="
  293.669,1688.65 295.95,1687.77 298.231,1686.89 300.512,1686 302.793,1685.12 305.074,1684.23 307.355,1683.34 309.636,1682.45 311.917,1681.56 314.198,1680.67 
  316.479,1679.78 318.76,1678.89 321.041,1678 323.322,1677.1 325.603,1676.21 327.884,1675.31 330.165,1674.42 332.446,1673.52 334.727,1672.62 337.008,1671.72 
  339.289,1670.82 341.57,1669.92 343.851,1669.02 346.132,1668.11 348.413,1667.21 350.694,1666.31 352.975,1665.4 355.256,1664.49 357.537,1663.59 359.818,1662.68 
  362.099,1661.77 364.38,1660.86 366.661,1659.95 368.942,1659.04 371.223,1658.12 373.504,1657.21 375.785,1656.29 378.066,1655.38 380.347,1654.46 382.628,1653.54 
  384.909,1652.63 387.19,1651.71 389.471,1650.79 391.752,1649.87 394.033,1648.94 396.314,1648.02 398.595,1647.1 400.876,1646.17 403.157,1645.25 405.438,1644.32 
  407.719,1643.39 410,1642.46 412.281,1641.53 414.562,1640.6 416.843,1639.67 419.124,1638.74 421.405,1637.81 423.686,1636.87 425.967,1635.94 428.248,1635 
  430.529,1634.06 432.81,1633.13 435.091,1632.19 437.372,1631.25 439.653,1630.31 441.934,1629.36 444.215,1628.42 446.496,1627.48 448.777,1626.53 451.058,1625.59 
  453.339,1624.64 455.62,1623.69 457.901,1622.75 460.182,1621.8 462.463,1620.85 464.744,1619.9 467.025,1618.94 469.306,1617.99 471.587,1617.04 473.868,1616.08 
  476.149,1615.13 478.43,1614.17 480.711,1613.21 482.992,1612.25 485.273,1611.29 487.555,1610.33 489.836,1609.37 492.117,1608.41 494.398,1607.44 496.679,1606.48 
  498.96,1605.51 501.241,1604.55 503.522,1603.58 505.803,1602.61 508.084,1601.64 510.365,1600.67 512.646,1599.7 514.927,1598.73 517.208,1597.75 519.489,1596.78 
  521.77,1595.8 524.051,1594.83 526.332,1593.85 528.613,1592.87 530.894,1591.89 533.175,1590.91 535.456,1589.93 537.737,1588.95 540.018,1587.97 542.299,1586.98 
  544.58,1586 546.861,1585.01 549.142,1584.02 551.423,1583.04 553.704,1582.05 555.985,1581.06 558.266,1580.07 560.547,1579.07 562.828,1578.08 565.109,1577.09 
  567.39,1576.09 569.671,1575.1 571.952,1574.1 574.233,1573.1 576.514,1572.1 578.795,1571.1 581.076,1570.1 583.357,1569.1 585.638,1568.1 587.919,1567.09 
  590.2,1566.09 592.481,1565.08 594.762,1564.07 597.043,1563.07 599.324,1562.06 601.605,1561.05 603.886,1560.04 606.167,1559.02 608.448,1558.01 610.729,1557 
  613.01,1555.98 615.291,1554.97 617.572,1553.95 619.853,1552.93 622.134,1551.91 624.415,1550.89 626.696,1549.87 628.977,1548.85 631.258,1547.82 633.539,1546.8 
  635.82,1545.77 638.101,1544.75 640.382,1543.72 642.663,1542.69 644.944,1541.66 647.225,1540.63 649.506,1539.6 651.787,1538.57 654.068,1537.54 656.349,1536.5 
  658.63,1535.47 660.911,1534.43 663.192,1533.39 665.473,1532.35 667.754,1531.31 670.035,1530.27 672.316,1529.23 674.597,1528.19 676.878,1527.14 679.159,1526.1 
  681.44,1525.05 683.721,1524 686.002,1522.96 688.283,1521.91 690.564,1520.86 692.845,1519.81 695.126,1518.75 697.407,1517.7 699.688,1516.65 701.969,1515.59 
  704.25,1514.53 706.531,1513.48 708.812,1512.42 711.093,1511.36 713.374,1510.3 715.655,1509.23 717.936,1508.17 720.217,1507.11 722.498,1506.04 724.779,1504.98 
  727.06,1503.91 729.341,1502.84 731.622,1501.77 733.903,1500.7 736.184,1499.63 738.465,1498.56 740.746,1497.48 743.027,1496.41 745.308,1495.33 747.589,1494.26 
  749.87,1493.18 752.151,1492.1 754.432,1491.02 756.713,1489.94 758.994,1488.86 761.275,1487.77 763.556,1486.69 765.837,1485.6 768.118,1484.52 770.399,1483.43 
  772.68,1482.34 774.961,1481.25 777.242,1480.16 779.523,1479.07 781.804,1477.97 784.085,1476.88 786.366,1475.78 788.647,1474.69 790.928,1473.59 793.209,1472.49 
  795.49,1471.39 797.771,1470.29 800.052,1469.19 802.333,1468.09 804.614,1466.98 806.895,1465.88 809.176,1464.77 811.457,1463.66 813.738,1462.55 816.019,1461.44 
  818.3,1460.33 820.581,1459.22 822.862,1458.11 825.143,1456.99 827.424,1455.88 829.705,1454.76 831.986,1453.64 834.267,1452.53 836.548,1451.41 838.829,1450.29 
  841.11,1449.16 843.391,1448.04 845.672,1446.92 847.953,1445.79 850.234,1444.66 852.515,1443.54 854.796,1442.41 857.078,1441.28 859.359,1440.15 861.64,1439.01 
  863.921,1437.88 866.202,1436.75 868.483,1435.61 870.764,1434.48 873.045,1433.34 875.326,1432.2 877.607,1431.06 879.888,1429.92 882.169,1428.77 884.45,1427.63 
  886.731,1426.49 889.012,1425.34 891.293,1424.19 893.574,1423.05 895.855,1421.9 898.136,1420.75 900.417,1419.59 902.698,1418.44 904.979,1417.29 907.26,1416.13 
  909.541,1414.98 911.822,1413.82 914.103,1412.66 916.384,1411.5 918.665,1410.34 920.946,1409.18 923.227,1408.01 925.508,1406.85 927.789,1405.69 930.07,1404.52 
  932.351,1403.35 934.632,1402.18 936.913,1401.01 939.194,1399.84 941.475,1398.67 943.756,1397.49 946.037,1396.32 948.318,1395.14 950.599,1393.97 952.88,1392.79 
  955.161,1391.61 957.442,1390.43 959.723,1389.25 962.004,1388.06 964.285,1386.88 966.566,1385.69 968.847,1384.51 971.128,1383.32 973.409,1382.13 975.69,1380.94 
  977.971,1379.75 980.252,1378.55 982.533,1377.36 984.814,1376.17 987.095,1374.97 989.376,1373.77 991.657,1372.57 993.938,1371.37 996.219,1370.17 998.5,1368.97 
  1000.78,1367.77 1003.06,1366.56 1005.34,1365.36 1007.62,1364.15 1009.9,1362.94 1012.19,1361.73 1014.47,1360.52 1016.75,1359.31 1019.03,1358.1 1021.31,1356.88 
  1023.59,1355.67 1025.87,1354.45 1028.15,1353.23 1030.43,1352.01 1032.71,1350.79 1035,1349.57 1037.28,1348.35 1039.56,1347.12 1041.84,1345.9 1044.12,1344.67 
  1046.4,1343.44 1048.68,1342.21 1050.96,1340.98 1053.24,1339.75 1055.53,1338.52 1057.81,1337.29 1060.09,1336.05 1062.37,1334.82 1064.65,1333.58 1066.93,1332.34 
  1069.21,1331.1 1071.49,1329.86 1073.77,1328.61 1076.05,1327.37 1078.34,1326.13 1080.62,1324.88 1082.9,1323.63 1085.18,1322.38 1087.46,1321.13 1089.74,1319.88 
  1092.02,1318.63 1094.3,1317.38 1096.58,1316.12 1098.86,1314.86 1101.15,1313.61 1103.43,1312.35 1105.71,1311.09 1107.99,1309.83 1110.27,1308.56 1112.55,1307.3 
  1114.83,1306.03 1117.11,1304.77 1119.39,1303.5 1121.67,1302.23 1123.96,1300.96 1126.24,1299.69 1128.52,1298.42 1130.8,1297.14 1133.08,1295.87 1135.36,1294.59 
  1137.64,1293.31 1139.92,1292.03 1142.2,1290.75 1144.48,1289.47 1146.77,1288.19 1149.05,1286.9 1151.33,1285.62 1153.61,1284.33 1155.89,1283.04 1158.17,1281.75 
  1160.45,1280.46 1162.73,1279.17 1165.01,1277.88 1167.29,1276.58 1169.58,1275.29 1171.86,1273.99 1174.14,1272.69 1176.42,1271.39 1178.7,1270.09 1180.98,1268.79 
  1183.26,1267.48 1185.54,1266.18 1187.82,1264.87 1190.1,1263.56 1192.39,1262.26 1194.67,1260.95 1196.95,1259.63 1199.23,1258.32 1201.51,1257.01 1203.79,1255.69 
  1206.07,1254.37 1208.35,1253.06 1210.63,1251.74 1212.91,1250.42 1215.2,1249.09 1217.48,1247.77 1219.76,1246.44 1222.04,1245.12 1224.32,1243.79 1226.6,1242.46 
  1228.88,1241.13 1231.16,1239.8 1233.44,1238.47 1235.72,1237.13 1238.01,1235.8 1240.29,1234.46 1242.57,1233.12 1244.85,1231.78 1247.13,1230.44 1249.41,1229.1 
  1251.69,1227.76 1253.97,1226.41 1256.25,1225.07 1258.53,1223.72 1260.82,1222.37 1263.1,1221.02 1265.38,1219.67 1267.66,1218.32 1269.94,1216.96 1272.22,1215.61 
  1274.5,1214.25 1276.78,1212.89 1279.06,1211.53 1281.34,1210.17 1283.63,1208.81 1285.91,1207.44 1288.19,1206.08 1290.47,1204.71 1292.75,1203.34 1295.03,1201.97 
  1297.31,1200.6 1299.59,1199.23 1301.87,1197.86 1304.15,1196.48 1306.44,1195.11 1308.72,1193.73 1311,1192.35 1313.28,1190.97 1315.56,1189.59 1317.84,1188.21 
  1320.12,1186.82 1322.4,1185.44 1324.68,1184.05 1326.96,1182.66 1329.25,1181.27 1331.53,1179.88 1333.81,1178.49 1336.09,1177.09 1338.37,1175.7 1340.65,1174.3 
  1342.93,1172.9 1345.21,1171.5 1347.49,1170.1 1349.77,1168.7 1352.06,1167.29 1354.34,1165.89 1356.62,1164.48 1358.9,1163.07 1361.18,1161.66 1363.46,1160.25 
  1365.74,1158.84 1368.02,1157.43 1370.3,1156.01 1372.58,1154.59 1374.87,1153.18 1377.15,1151.76 1379.43,1150.33 1381.71,1148.91 1383.99,1147.49 1386.27,1146.06 
  1388.55,1144.64 1390.83,1143.21 1393.11,1141.78 1395.39,1140.35 1397.68,1138.92 1399.96,1137.48 1402.24,1136.05 1404.52,1134.61 1406.8,1133.17 1409.08,1131.73 
  1411.36,1130.29 1413.64,1128.85 1415.92,1127.4 1418.21,1125.96 1420.49,1124.51 1422.77,1123.06 1425.05,1121.61 1427.33,1120.16 1429.61,1118.71 1431.89,1117.26 
  1434.17,1115.8 1436.45,1114.34 1438.73,1112.89 1441.02,1111.43 1443.3,1109.97 1445.58,1108.5 1447.86,1107.04 1450.14,1105.57 1452.42,1104.11 1454.7,1102.64 
  1456.98,1101.17 1459.26,1099.69 1461.54,1098.22 1463.83,1096.75 1466.11,1095.27 1468.39,1093.79 1470.67,1092.31 1472.95,1090.83 1475.23,1089.35 1477.51,1087.87 
  1479.79,1086.38 1482.07,1084.9 1484.35,1083.41 1486.64,1081.92 1488.92,1080.43 1491.2,1078.94 1493.48,1077.44 1495.76,1075.95 1498.04,1074.45 1500.32,1072.95 
  1502.6,1071.45 1504.88,1069.95 1507.16,1068.45 1509.45,1066.94 1511.73,1065.44 1514.01,1063.93 1516.29,1062.42 1518.57,1060.91 1520.85,1059.4 1523.13,1057.89 
  1525.41,1056.37 1527.69,1054.85 1529.97,1053.34 1532.26,1051.82 1534.54,1050.3 1536.82,1048.77 1539.1,1047.25 1541.38,1045.72 1543.66,1044.2 1545.94,1042.67 
  1548.22,1041.14 1550.5,1039.61 1552.78,1038.07 1555.07,1036.54 1557.35,1035 1559.63,1033.46 1561.91,1031.92 1564.19,1030.38 1566.47,1028.84 1568.75,1027.3 
  1571.03,1025.75 1573.31,1024.2 1575.59,1022.65 1577.88,1021.1 1580.16,1019.55 1582.44,1018 1584.72,1016.44 1587,1014.89 1589.28,1013.33 1591.56,1011.77 
  1593.84,1010.21 1596.12,1008.65 1598.4,1007.08 1600.69,1005.52 1602.97,1003.95 1605.25,1002.38 1607.53,1000.81 1609.81,999.237 1612.09,997.664 1614.37,996.088 
  1616.65,994.512 1618.93,992.933 1621.21,991.353 1623.5,989.771 1625.78,988.188 1628.06,986.603 1630.34,985.017 1632.62,983.429 1634.9,981.84 1637.18,980.249 
  1639.46,978.656 1641.74,977.061 1644.02,975.466 1646.31,973.868 1648.59,972.269 1650.87,970.668 1653.15,969.066 1655.43,967.462 1657.71,965.856 1659.99,964.249 
  1662.27,962.641 1664.55,961.03 1666.83,959.418 1669.12,957.805 1671.4,956.189 1673.68,954.573 1675.96,952.954 1678.24,951.334 1680.52,949.712 1682.8,948.089 
  1685.08,946.464 1687.36,944.838 1689.64,943.209 1691.93,941.58 1694.21,939.948 1696.49,938.315 1698.77,936.68 1701.05,935.044 1703.33,933.406 1705.61,931.766 
  1707.89,930.125 1710.17,928.482 1712.45,926.837 1714.74,925.191 1717.02,923.543 1719.3,921.894 1721.58,920.243 1723.86,918.59 1726.14,916.935 1728.42,915.279 
  1730.7,913.621 1732.98,911.962 1735.26,910.301 1737.55,908.638 1739.83,906.974 1742.11,905.307 1744.39,903.64 1746.67,901.97 1748.95,900.299 1751.23,898.626 
  1753.51,896.952 1755.79,895.276 1758.07,893.598 1760.36,891.918 1762.64,890.237 1764.92,888.554 1767.2,886.87 1769.48,885.183 1771.76,883.495 1774.04,881.806 
  1776.32,880.115 1778.6,878.422 1780.89,876.727 1783.17,875.03 1785.45,873.332 1787.73,871.632 1790.01,869.931 1792.29,868.228 1794.57,866.523 1796.85,864.816 
  1799.13,863.108 1801.41,861.398 1803.7,859.686 1805.98,857.973 1808.26,856.257 1810.54,854.54 1812.82,852.822 1815.1,851.101 1817.38,849.379 1819.66,847.656 
  1821.94,845.93 1824.22,844.203 1826.51,842.474 1828.79,840.743 1831.07,839.011 1833.35,837.277 1835.63,835.541 1837.91,833.803 1840.19,832.064 1842.47,830.322 
  1844.75,828.58 1847.03,826.835 1849.32,825.089 1851.6,823.34 1853.88,821.591 1856.16,819.839 1858.44,818.086 1860.72,816.33 1863,814.574 1865.28,812.815 
  1867.56,811.055 1869.84,809.292 1872.13,807.528 1874.41,805.763 1876.69,803.995 1878.97,802.226 1881.25,800.455 1883.53,798.682 1885.81,796.908 1888.09,795.131 
  1890.37,793.353 1892.65,791.573 1894.94,789.792 1897.22,788.008 1899.5,786.223 1901.78,784.436 1904.06,782.647 1906.34,780.856 1908.62,779.064 1910.9,777.27 
  1913.18,775.474 1915.46,773.676 1917.75,771.876 1920.03,770.075 1922.31,768.272 1924.59,766.467 1926.87,764.66 1929.15,762.851 1931.43,761.041 1933.71,759.228 
  1935.99,757.414 1938.27,755.598 1940.56,753.781 1942.84,751.961 1945.12,750.14 1947.4,748.317 1949.68,746.492 1951.96,744.665 1954.24,742.836 1956.52,741.006 
  1958.8,739.173 1961.08,737.339 1963.37,735.503 1965.65,733.665 1967.93,731.826 1970.21,729.984 1972.49,728.141 1974.77,726.295 1977.05,724.448 1979.33,722.599 
  1981.61,720.749 1983.89,718.896 1986.18,717.042 1988.46,715.185 1990.74,713.327 1993.02,711.467 1995.3,709.605 1997.58,707.741 1999.86,705.876 2002.14,704.008 
  2004.42,702.139 2006.7,700.268 2008.99,698.394 2011.27,696.519 2013.55,694.643 2015.83,692.764 2018.11,690.883 2020.39,689.001 2022.67,687.116 2024.95,685.23 
  2027.23,683.342 2029.51,681.452 2031.8,679.56 2034.08,677.666 2036.36,675.77 2038.64,673.872 2040.92,671.973 2043.2,670.071 2045.48,668.168 2047.76,666.263 
  2050.04,664.356 2052.32,662.447 2054.61,660.535 2056.89,658.623 2059.17,656.708 2061.45,654.791 2063.73,652.872 2066.01,650.952 2068.29,649.029 2070.57,647.105 
  2072.85,645.178 2075.13,643.25 2077.42,641.32 2079.7,639.388 2081.98,637.454 2084.26,635.518 2086.54,633.58 2088.82,631.64 2091.1,629.698 2093.38,627.754 
  2095.66,625.808 2097.94,623.861 2100.23,621.911 2102.51,619.959 2104.79,618.006 2107.07,616.05 2109.35,614.093 2111.63,612.134 2113.91,610.172 2116.19,608.209 
  2118.47,606.243 2120.75,604.276 2123.04,602.307 2125.32,600.336 2127.6,598.363 2129.88,596.387 2132.16,594.41 2134.44,592.431 2136.72,590.45 2139,588.467 
  2141.28,586.482 2143.56,584.495 2145.85,582.506 2148.13,580.515 2150.41,578.522 2152.69,576.527 2154.97,574.529 2157.25,572.53 2159.53,570.529 2161.81,568.526 
  2164.09,566.521 2166.38,564.514 2168.66,562.505 2170.94,560.494 2173.22,558.481 2175.5,556.466 2177.78,554.449 2180.06,552.43 2182.34,550.408 2184.62,548.385 
  2186.9,546.36 2189.19,544.333 2191.47,542.303 2193.75,540.272 2196.03,538.239 2198.31,536.203 2200.59,534.166 2202.87,532.126 2205.15,530.085 2207.43,528.041 
  2209.71,525.996 2212,523.948 2214.28,521.898 2216.56,519.847 2218.84,517.793 2221.12,515.737 2223.4,513.679 2225.68,511.619 2227.96,509.557 2230.24,507.493 
  2232.52,505.427 2234.81,503.359 2237.09,501.288 2239.37,499.216 2241.65,497.141 2243.93,495.065 2246.21,492.986 2248.49,490.906 2250.77,488.823 2253.05,486.738 
  2255.33,484.651 2257.62,482.562 2259.9,480.471 2262.18,478.377 2264.46,476.282 2266.74,474.185 2269.02,472.085 2271.3,469.983 2273.58,467.88 2275.86,465.774 
  2278.14,463.666 2280.43,461.556 2282.71,459.444 2284.99,457.329 2287.27,455.213 2289.55,453.094 2291.83,450.974 2294.11,448.851 2296.39,446.726 2298.67,444.599 
  2300.95,442.47 2303.24,440.338 2305.52,438.205 2307.8,436.069 2310.08,433.932 2312.36,431.792 2314.64,429.65 2316.92,427.506 2319.2,425.359 2321.48,423.211 
  2323.76,421.06 2326.05,418.908 2328.33,416.753 2330.61,414.596 2332.89,412.436 2335.17,410.275 2337.45,408.112 2339.73,405.946 2342.01,403.778 2344.29,401.608 
  2346.57,399.436 2348.86,397.261 2351.14,395.085 2353.42,392.906 2355.7,390.725 2357.98,388.542 2360.26,386.356 2362.54,384.169 2364.82,381.979 2367.1,379.787 
  2369.38,377.593 2371.67,375.397 2373.95,373.199 2376.23,370.998 2378.51,368.795 2380.79,366.59 2383.07,364.383 2385.35,362.173 2387.63,359.961 2389.91,357.747 
  2392.19,355.531 2394.48,353.313 2396.76,351.092 2399.04,348.869 2401.32,346.644 2403.6,344.417 2405.88,342.188 2408.16,339.956 2410.44,337.722 2412.72,335.486 
  2415,333.247 2417.29,331.006 2419.57,328.763 2421.85,326.518 2424.13,324.271 2426.41,322.021 2428.69,319.769 2430.97,317.515 2433.25,315.259 2435.53,313 
  2437.81,310.739 2440.1,308.476 2442.38,306.21 2444.66,303.942 2446.94,301.672 2449.22,299.4 2451.5,297.125 2453.78,294.848 2456.06,292.569 2458.34,290.288 
  2460.62,288.004 2462.91,285.718 2465.19,283.43 2467.47,281.139 2469.75,278.846 2472.03,276.551 2474.31,274.254 2476.59,271.954 2478.87,269.652 2481.15,267.347 
  2483.43,265.041 2485.72,262.732 2488,260.42 2490.28,258.107 2492.56,255.791 2494.84,253.472 2497.12,251.152 2499.4,248.829 2501.68,246.504 2503.96,244.176 
  2506.24,241.846 2508.53,239.514 2510.81,237.179 2513.09,234.842 2515.37,232.503 2517.65,230.161 2519.93,227.818 2522.21,225.471 2524.49,223.123 2526.77,220.772 
  2529.06,218.418 2531.34,216.063 2533.62,213.704 2535.9,211.344 2538.18,208.981 2540.46,206.616 2542.74,204.249 2545.02,201.879 2547.3,199.506 2549.58,197.132 
  2551.87,194.755 2554.15,192.375 2556.43,189.994 2558.71,187.609 2560.99,185.223 2563.27,182.834 2565.55,180.443 2567.83,178.049 2570.11,175.653 2572.39,173.254 
  
  "/>
</svg>
