<?xml version="1.0" encoding="utf-8"?>
<svg xmlns="http://www.w3.org/2000/svg" xmlns:xlink="http://www.w3.org/1999/xlink" width="161.25" height="115.25" viewBox="0 0 645 461">
<defs>
  <clipPath id="clip600">
    <rect x="0" y="0" width="645" height="461"/>
  </clipPath>
</defs>
<path clip-path="url(#clip600)" d="
M0 461 L645 461 L645 0 L0 0  Z
  " fill="#ffffff" fill-rule="evenodd" fill-opacity="1"/>
<defs>
  <clipPath id="clip601">
    <rect x="129" y="0" width="453" height="453"/>
  </clipPath>
</defs>
<path clip-path="url(#clip600)" d="
M43.7999 432.375 L633.664 432.375 L633.664 11.3435 L43.7999 11.3435  Z
  " fill="#ffffff" fill-rule="evenodd" fill-opacity="1"/>
<defs>
  <clipPath id="clip602">
    <rect x="43" y="11" width="591" height="422"/>
  </clipPath>
</defs>
<polyline clip-path="url(#clip602)" style="stroke:#000000; stroke-width:0.480208; stroke-opacity:0.1; fill:none" points="
  60.4855,432.375 60.4855,11.3435 
  "/>
<polyline clip-path="url(#clip602)" style="stroke:#000000; stroke-width:0.480208; stroke-opacity:0.1; fill:none" points="
  199.609,432.375 199.609,11.3435 
  "/>
<polyline clip-path="url(#clip602)" style="stroke:#000000; stroke-width:0.480208; stroke-opacity:0.1; fill:none" points="
  338.732,432.375 338.732,11.3435 
  "/>
<polyline clip-path="url(#clip602)" style="stroke:#000000; stroke-width:0.480208; stroke-opacity:0.1; fill:none" points="
  477.855,432.375 477.855,11.3435 
  "/>
<polyline clip-path="url(#clip602)" style="stroke:#000000; stroke-width:0.480208; stroke-opacity:0.1; fill:none" points="
  616.978,432.375 616.978,11.3435 
  "/>
<polyline clip-path="url(#clip600)" style="stroke:#000000; stroke-width:0.960417; stroke-opacity:1; fill:none" points="
  43.7999,432.375 633.664,432.375 
  "/>
<polyline clip-path="url(#clip600)" style="stroke:#000000; stroke-width:0.960417; stroke-opacity:1; fill:none" points="
  60.4855,432.375 60.4855,427.322 
  "/>
<polyline clip-path="url(#clip600)" style="stroke:#000000; stroke-width:0.960417; stroke-opacity:1; fill:none" points="
  199.609,432.375 199.609,427.322 
  "/>
<polyline clip-path="url(#clip600)" style="stroke:#000000; stroke-width:0.960417; stroke-opacity:1; fill:none" points="
  338.732,432.375 338.732,427.322 
  "/>
<polyline clip-path="url(#clip600)" style="stroke:#000000; stroke-width:0.960417; stroke-opacity:1; fill:none" points="
  477.855,432.375 477.855,427.322 
  "/>
<polyline clip-path="url(#clip600)" style="stroke:#000000; stroke-width:0.960417; stroke-opacity:1; fill:none" points="
  616.978,432.375 616.978,427.322 
  "/>
<path clip-path="url(#clip600)" d="M 0 0 M49.396 443.455 L56.5168 443.455 L56.5168 444.4 L49.396 444.4 L49.396 443.455 Z" fill="#000000" fill-rule="evenodd" fill-opacity="1" /><path clip-path="url(#clip600)" d="M 0 0 M57.9277 446.551 L59.7607 446.551 L59.7607 440.22 L57.7666 440.62 L57.7666 439.598 L59.7495 439.197 L60.8716 439.197 L60.8716 446.551 L62.7045 446.551 L62.7045 447.495 L57.9277 447.495 L57.9277 446.551 Z" fill="#000000" fill-rule="evenodd" fill-opacity="1" /><path clip-path="url(#clip600)" d="M 0 0 M63.921 446.084 L65.093 446.084 L65.093 447.495 L63.921 447.495 L63.921 446.084 Z" fill="#000000" fill-rule="evenodd" fill-opacity="1" /><path clip-path="url(#clip600)" d="M 0 0 M68.7089 439.937 Q67.8424 439.937 67.4036 440.793 Q66.9704 441.643 66.9704 443.355 Q66.9704 445.061 67.4036 445.917 Q67.8424 446.767 68.7089 446.767 Q69.581 446.767 70.0142 445.917 Q70.4531 445.061 70.4531 443.355 Q70.4531 441.643 70.0142 440.793 Q69.581 439.937 68.7089 439.937 M68.7089 439.047 Q70.1031 439.047 70.8363 440.153 Q71.5751 441.254 71.5751 443.355 Q71.5751 445.45 70.8363 446.556 Q70.1031 447.657 68.7089 447.657 Q67.3148 447.657 66.576 446.556 Q65.8428 445.45 65.8428 443.355 Q65.8428 441.254 66.576 440.153 Q67.3148 439.047 68.7089 439.047 Z" fill="#000000" fill-rule="evenodd" fill-opacity="1" /><path clip-path="url(#clip600)" d="M 0 0 M188.491 443.455 L195.612 443.455 L195.612 444.4 L188.491 444.4 L188.491 443.455 Z" fill="#000000" fill-rule="evenodd" fill-opacity="1" /><path clip-path="url(#clip600)" d="M 0 0 M199.228 439.937 Q198.362 439.937 197.923 440.793 Q197.49 441.643 197.49 443.355 Q197.49 445.061 197.923 445.917 Q198.362 446.767 199.228 446.767 Q200.1 446.767 200.533 445.917 Q200.972 445.061 200.972 443.355 Q200.972 441.643 200.533 440.793 Q200.1 439.937 199.228 439.937 M199.228 439.047 Q200.622 439.047 201.356 440.153 Q202.094 441.254 202.094 443.355 Q202.094 445.45 201.356 446.556 Q200.622 447.657 199.228 447.657 Q197.834 447.657 197.095 446.556 Q196.362 445.45 196.362 443.355 Q196.362 441.254 197.095 440.153 Q197.834 439.047 199.228 439.047 Z" fill="#000000" fill-rule="evenodd" fill-opacity="1" /><path clip-path="url(#clip600)" d="M 0 0 M203.311 446.084 L204.483 446.084 L204.483 447.495 L203.311 447.495 L203.311 446.084 Z" fill="#000000" fill-rule="evenodd" fill-opacity="1" /><path clip-path="url(#clip600)" d="M 0 0 M205.71 439.197 L210.115 439.197 L210.115 440.142 L206.738 440.142 L206.738 442.176 Q206.982 442.093 207.227 442.054 Q207.471 442.01 207.715 442.01 Q209.104 442.01 209.915 442.771 Q210.726 443.533 210.726 444.833 Q210.726 446.173 209.893 446.917 Q209.06 447.657 207.543 447.657 Q207.021 447.657 206.477 447.568 Q205.938 447.479 205.36 447.301 L205.36 446.173 Q205.86 446.445 206.393 446.578 Q206.927 446.712 207.521 446.712 Q208.482 446.712 209.043 446.206 Q209.604 445.7 209.604 444.833 Q209.604 443.966 209.043 443.46 Q208.482 442.955 207.521 442.955 Q207.071 442.955 206.621 443.055 Q206.177 443.155 205.71 443.366 L205.71 439.197 Z" fill="#000000" fill-rule="evenodd" fill-opacity="1" /><path clip-path="url(#clip600)" d="M 0 0 M334.296 439.937 Q333.43 439.937 332.991 440.793 Q332.558 441.643 332.558 443.355 Q332.558 445.061 332.991 445.917 Q333.43 446.767 334.296 446.767 Q335.169 446.767 335.602 445.917 Q336.041 445.061 336.041 443.355 Q336.041 441.643 335.602 440.793 Q335.169 439.937 334.296 439.937 M334.296 439.047 Q335.691 439.047 336.424 440.153 Q337.163 441.254 337.163 443.355 Q337.163 445.45 336.424 446.556 Q335.691 447.657 334.296 447.657 Q332.902 447.657 332.164 446.556 Q331.43 445.45 331.43 443.355 Q331.43 441.254 332.164 440.153 Q332.902 439.047 334.296 439.047 Z" fill="#000000" fill-rule="evenodd" fill-opacity="1" /><path clip-path="url(#clip600)" d="M 0 0 M338.379 446.084 L339.551 446.084 L339.551 447.495 L338.379 447.495 L338.379 446.084 Z" fill="#000000" fill-rule="evenodd" fill-opacity="1" /><path clip-path="url(#clip600)" d="M 0 0 M343.167 439.937 Q342.3 439.937 341.862 440.793 Q341.428 441.643 341.428 443.355 Q341.428 445.061 341.862 445.917 Q342.3 446.767 343.167 446.767 Q344.039 446.767 344.472 445.917 Q344.911 445.061 344.911 443.355 Q344.911 441.643 344.472 440.793 Q344.039 439.937 343.167 439.937 M343.167 439.047 Q344.561 439.047 345.294 440.153 Q346.033 441.254 346.033 443.355 Q346.033 445.45 345.294 446.556 Q344.561 447.657 343.167 447.657 Q341.773 447.657 341.034 446.556 Q340.301 445.45 340.301 443.355 Q340.301 441.254 341.034 440.153 Q341.773 439.047 343.167 439.047 Z" fill="#000000" fill-rule="evenodd" fill-opacity="1" /><path clip-path="url(#clip600)" d="M 0 0 M473.539 439.937 Q472.672 439.937 472.234 440.793 Q471.8 441.643 471.8 443.355 Q471.8 445.061 472.234 445.917 Q472.672 446.767 473.539 446.767 Q474.411 446.767 474.844 445.917 Q475.283 445.061 475.283 443.355 Q475.283 441.643 474.844 440.793 Q474.411 439.937 473.539 439.937 M473.539 439.047 Q474.933 439.047 475.666 440.153 Q476.405 441.254 476.405 443.355 Q476.405 445.45 475.666 446.556 Q474.933 447.657 473.539 447.657 Q472.145 447.657 471.406 446.556 Q470.673 445.45 470.673 443.355 Q470.673 441.254 471.406 440.153 Q472.145 439.047 473.539 439.047 Z" fill="#000000" fill-rule="evenodd" fill-opacity="1" /><path clip-path="url(#clip600)" d="M 0 0 M477.622 446.084 L478.794 446.084 L478.794 447.495 L477.622 447.495 L477.622 446.084 Z" fill="#000000" fill-rule="evenodd" fill-opacity="1" /><path clip-path="url(#clip600)" d="M 0 0 M480.021 439.197 L484.426 439.197 L484.426 440.142 L481.049 440.142 L481.049 442.176 Q481.293 442.093 481.537 442.054 Q481.782 442.01 482.026 442.01 Q483.415 442.01 484.226 442.771 Q485.037 443.533 485.037 444.833 Q485.037 446.173 484.204 446.917 Q483.37 447.657 481.854 447.657 Q481.332 447.657 480.788 447.568 Q480.249 447.479 479.671 447.301 L479.671 446.173 Q480.171 446.445 480.704 446.578 Q481.238 446.712 481.832 446.712 Q482.793 446.712 483.354 446.206 Q483.915 445.7 483.915 444.833 Q483.915 443.966 483.354 443.46 Q482.793 442.955 481.832 442.955 Q481.382 442.955 480.932 443.055 Q480.488 443.155 480.021 443.366 L480.021 439.197 Z" fill="#000000" fill-rule="evenodd" fill-opacity="1" /><path clip-path="url(#clip600)" d="M 0 0 M610.235 446.551 L612.068 446.551 L612.068 440.22 L610.074 440.62 L610.074 439.598 L612.057 439.197 L613.179 439.197 L613.179 446.551 L615.012 446.551 L615.012 447.495 L610.235 447.495 L610.235 446.551 Z" fill="#000000" fill-rule="evenodd" fill-opacity="1" /><path clip-path="url(#clip600)" d="M 0 0 M616.228 446.084 L617.4 446.084 L617.4 447.495 L616.228 447.495 L616.228 446.084 Z" fill="#000000" fill-rule="evenodd" fill-opacity="1" /><path clip-path="url(#clip600)" d="M 0 0 M621.016 439.937 Q620.15 439.937 619.711 440.793 Q619.278 441.643 619.278 443.355 Q619.278 445.061 619.711 445.917 Q620.15 446.767 621.016 446.767 Q621.888 446.767 622.321 445.917 Q622.76 445.061 622.76 443.355 Q622.76 441.643 622.321 440.793 Q621.888 439.937 621.016 439.937 M621.016 439.047 Q622.41 439.047 623.143 440.153 Q623.882 441.254 623.882 443.355 Q623.882 445.45 623.143 446.556 Q622.41 447.657 621.016 447.657 Q619.622 447.657 618.883 446.556 Q618.15 445.45 618.15 443.355 Q618.15 441.254 618.883 440.153 Q619.622 439.047 621.016 439.047 Z" fill="#000000" fill-rule="evenodd" fill-opacity="1" /><polyline clip-path="url(#clip602)" style="stroke:#000000; stroke-width:0.480208; stroke-opacity:0.1; fill:none" points="
  43.7999,420.465 633.664,420.465 
  "/>
<polyline clip-path="url(#clip602)" style="stroke:#000000; stroke-width:0.480208; stroke-opacity:0.1; fill:none" points="
  43.7999,321.162 633.664,321.162 
  "/>
<polyline clip-path="url(#clip602)" style="stroke:#000000; stroke-width:0.480208; stroke-opacity:0.1; fill:none" points="
  43.7999,221.859 633.664,221.859 
  "/>
<polyline clip-path="url(#clip602)" style="stroke:#000000; stroke-width:0.480208; stroke-opacity:0.1; fill:none" points="
  43.7999,122.556 633.664,122.556 
  "/>
<polyline clip-path="url(#clip602)" style="stroke:#000000; stroke-width:0.480208; stroke-opacity:0.1; fill:none" points="
  43.7999,23.2533 633.664,23.2533 
  "/>
<polyline clip-path="url(#clip600)" style="stroke:#000000; stroke-width:0.960417; stroke-opacity:1; fill:none" points="
  43.7999,432.375 43.7999,11.3435 
  "/>
<polyline clip-path="url(#clip600)" style="stroke:#000000; stroke-width:0.960417; stroke-opacity:1; fill:none" points="
  43.7999,420.465 50.8783,420.465 
  "/>
<polyline clip-path="url(#clip600)" style="stroke:#000000; stroke-width:0.960417; stroke-opacity:1; fill:none" points="
  43.7999,321.162 50.8783,321.162 
  "/>
<polyline clip-path="url(#clip600)" style="stroke:#000000; stroke-width:0.960417; stroke-opacity:1; fill:none" points="
  43.7999,221.859 50.8783,221.859 
  "/>
<polyline clip-path="url(#clip600)" style="stroke:#000000; stroke-width:0.960417; stroke-opacity:1; fill:none" points="
  43.7999,122.556 50.8783,122.556 
  "/>
<polyline clip-path="url(#clip600)" style="stroke:#000000; stroke-width:0.960417; stroke-opacity:1; fill:none" points="
  43.7999,23.2533 50.8783,23.2533 
  "/>
<path clip-path="url(#clip600)" d="M 0 0 M11.9458 420.573 L19.0667 420.573 L19.0667 421.518 L11.9458 421.518 L11.9458 420.573 Z" fill="#000000" fill-rule="evenodd" fill-opacity="1" /><path clip-path="url(#clip600)" d="M 0 0 M20.4775 423.669 L22.3105 423.669 L22.3105 417.338 L20.3165 417.739 L20.3165 416.716 L22.2994 416.316 L23.4214 416.316 L23.4214 423.669 L25.2544 423.669 L25.2544 424.614 L20.4775 424.614 L20.4775 423.669 Z" fill="#000000" fill-rule="evenodd" fill-opacity="1" /><path clip-path="url(#clip600)" d="M 0 0 M26.4708 423.202 L27.6428 423.202 L27.6428 424.614 L26.4708 424.614 L26.4708 423.202 Z" fill="#000000" fill-rule="evenodd" fill-opacity="1" /><path clip-path="url(#clip600)" d="M 0 0 M31.2588 417.055 Q30.3923 417.055 29.9535 417.911 Q29.5203 418.761 29.5203 420.473 Q29.5203 422.179 29.9535 423.035 Q30.3923 423.886 31.2588 423.886 Q32.1309 423.886 32.5641 423.035 Q33.0029 422.179 33.0029 420.473 Q33.0029 418.761 32.5641 417.911 Q32.1309 417.055 31.2588 417.055 M31.2588 416.166 Q32.653 416.166 33.3862 417.272 Q34.1249 418.372 34.1249 420.473 Q34.1249 422.569 33.3862 423.675 Q32.653 424.775 31.2588 424.775 Q29.8646 424.775 29.1259 423.675 Q28.3927 422.569 28.3927 420.473 Q28.3927 418.372 29.1259 417.272 Q29.8646 416.166 31.2588 416.166 Z" fill="#000000" fill-rule="evenodd" fill-opacity="1" /><path clip-path="url(#clip600)" d="M 0 0 M11.8903 321.27 L19.0112 321.27 L19.0112 322.215 L11.8903 322.215 L11.8903 321.27 Z" fill="#000000" fill-rule="evenodd" fill-opacity="1" /><path clip-path="url(#clip600)" d="M 0 0 M22.6271 317.752 Q21.7606 317.752 21.3218 318.608 Q20.8886 319.458 20.8886 321.17 Q20.8886 322.877 21.3218 323.732 Q21.7606 324.583 22.6271 324.583 Q23.4992 324.583 23.9324 323.732 Q24.3712 322.877 24.3712 321.17 Q24.3712 319.458 23.9324 318.608 Q23.4992 317.752 22.6271 317.752 M22.6271 316.863 Q24.0213 316.863 24.7545 317.969 Q25.4932 319.069 25.4932 321.17 Q25.4932 323.266 24.7545 324.372 Q24.0213 325.472 22.6271 325.472 Q21.233 325.472 20.4942 324.372 Q19.761 323.266 19.761 321.17 Q19.761 319.069 20.4942 317.969 Q21.233 316.863 22.6271 316.863 Z" fill="#000000" fill-rule="evenodd" fill-opacity="1" /><path clip-path="url(#clip600)" d="M 0 0 M26.7097 323.899 L27.8817 323.899 L27.8817 325.311 L26.7097 325.311 L26.7097 323.899 Z" fill="#000000" fill-rule="evenodd" fill-opacity="1" /><path clip-path="url(#clip600)" d="M 0 0 M29.1092 317.013 L33.5139 317.013 L33.5139 317.958 L30.1368 317.958 L30.1368 319.992 Q30.3812 319.909 30.6256 319.87 Q30.87 319.825 31.1144 319.825 Q32.503 319.825 33.314 320.587 Q34.1249 321.348 34.1249 322.649 Q34.1249 323.988 33.2918 324.733 Q32.4586 325.472 30.9422 325.472 Q30.4201 325.472 29.8757 325.383 Q29.337 325.294 28.7593 325.116 L28.7593 323.988 Q29.2592 324.26 29.7924 324.394 Q30.3257 324.527 30.92 324.527 Q31.8809 324.527 32.4419 324.022 Q33.0029 323.516 33.0029 322.649 Q33.0029 321.782 32.4419 321.276 Q31.8809 320.77 30.92 320.77 Q30.4701 320.77 30.0202 320.87 Q29.5758 320.97 29.1092 321.181 L29.1092 317.013 Z" fill="#000000" fill-rule="evenodd" fill-opacity="1" /><path clip-path="url(#clip600)" d="M 0 0 M22.3883 218.449 Q21.5218 218.449 21.083 219.305 Q20.6497 220.156 20.6497 221.867 Q20.6497 223.574 21.083 224.43 Q21.5218 225.28 22.3883 225.28 Q23.2603 225.28 23.6936 224.43 Q24.1324 223.574 24.1324 221.867 Q24.1324 220.156 23.6936 219.305 Q23.2603 218.449 22.3883 218.449 M22.3883 217.56 Q23.7825 217.56 24.5157 218.666 Q25.2544 219.766 25.2544 221.867 Q25.2544 223.963 24.5157 225.069 Q23.7825 226.169 22.3883 226.169 Q20.9941 226.169 20.2554 225.069 Q19.5222 223.963 19.5222 221.867 Q19.5222 219.766 20.2554 218.666 Q20.9941 217.56 22.3883 217.56 Z" fill="#000000" fill-rule="evenodd" fill-opacity="1" /><path clip-path="url(#clip600)" d="M 0 0 M26.4708 224.596 L27.6428 224.596 L27.6428 226.008 L26.4708 226.008 L26.4708 224.596 Z" fill="#000000" fill-rule="evenodd" fill-opacity="1" /><path clip-path="url(#clip600)" d="M 0 0 M31.2588 218.449 Q30.3923 218.449 29.9535 219.305 Q29.5203 220.156 29.5203 221.867 Q29.5203 223.574 29.9535 224.43 Q30.3923 225.28 31.2588 225.28 Q32.1309 225.28 32.5641 224.43 Q33.0029 223.574 33.0029 221.867 Q33.0029 220.156 32.5641 219.305 Q32.1309 218.449 31.2588 218.449 M31.2588 217.56 Q32.653 217.56 33.3862 218.666 Q34.1249 219.766 34.1249 221.867 Q34.1249 223.963 33.3862 225.069 Q32.653 226.169 31.2588 226.169 Q29.8646 226.169 29.1259 225.069 Q28.3927 223.963 28.3927 221.867 Q28.3927 219.766 29.1259 218.666 Q29.8646 217.56 31.2588 217.56 Z" fill="#000000" fill-rule="evenodd" fill-opacity="1" /><path clip-path="url(#clip600)" d="M 0 0 M22.6271 119.146 Q21.7606 119.146 21.3218 120.002 Q20.8886 120.853 20.8886 122.565 Q20.8886 124.271 21.3218 125.127 Q21.7606 125.977 22.6271 125.977 Q23.4992 125.977 23.9324 125.127 Q24.3712 124.271 24.3712 122.565 Q24.3712 120.853 23.9324 120.002 Q23.4992 119.146 22.6271 119.146 M22.6271 118.257 Q24.0213 118.257 24.7545 119.363 Q25.4932 120.464 25.4932 122.565 Q25.4932 124.66 24.7545 125.766 Q24.0213 126.866 22.6271 126.866 Q21.233 126.866 20.4942 125.766 Q19.761 124.66 19.761 122.565 Q19.761 120.464 20.4942 119.363 Q21.233 118.257 22.6271 118.257 Z" fill="#000000" fill-rule="evenodd" fill-opacity="1" /><path clip-path="url(#clip600)" d="M 0 0 M26.7097 125.293 L27.8817 125.293 L27.8817 126.705 L26.7097 126.705 L26.7097 125.293 Z" fill="#000000" fill-rule="evenodd" fill-opacity="1" /><path clip-path="url(#clip600)" d="M 0 0 M29.1092 118.407 L33.5139 118.407 L33.5139 119.352 L30.1368 119.352 L30.1368 121.386 Q30.3812 121.303 30.6256 121.264 Q30.87 121.219 31.1144 121.219 Q32.503 121.219 33.314 121.981 Q34.1249 122.742 34.1249 124.043 Q34.1249 125.382 33.2918 126.127 Q32.4586 126.866 30.9422 126.866 Q30.4201 126.866 29.8757 126.777 Q29.337 126.689 28.7593 126.511 L28.7593 125.382 Q29.2592 125.655 29.7924 125.788 Q30.3257 125.922 30.92 125.922 Q31.8809 125.922 32.4419 125.416 Q33.0029 124.91 33.0029 124.043 Q33.0029 123.176 32.4419 122.67 Q31.8809 122.164 30.92 122.164 Q30.4701 122.164 30.0202 122.264 Q29.5758 122.364 29.1092 122.576 L29.1092 118.407 Z" fill="#000000" fill-rule="evenodd" fill-opacity="1" /><path clip-path="url(#clip600)" d="M 0 0 M20.4775 26.4574 L22.3105 26.4574 L22.3105 20.127 L20.3165 20.5271 L20.3165 19.5045 L22.2994 19.1043 L23.4214 19.1043 L23.4214 26.4574 L25.2544 26.4574 L25.2544 27.4023 L20.4775 27.4023 L20.4775 26.4574 Z" fill="#000000" fill-rule="evenodd" fill-opacity="1" /><path clip-path="url(#clip600)" d="M 0 0 M26.4708 25.9906 L27.6428 25.9906 L27.6428 27.4023 L26.4708 27.4023 L26.4708 25.9906 Z" fill="#000000" fill-rule="evenodd" fill-opacity="1" /><path clip-path="url(#clip600)" d="M 0 0 M31.2588 19.8435 Q30.3923 19.8435 29.9535 20.6994 Q29.5203 21.5498 29.5203 23.2616 Q29.5203 24.9679 29.9535 25.8238 Q30.3923 26.6742 31.2588 26.6742 Q32.1309 26.6742 32.5641 25.8238 Q33.0029 24.9679 33.0029 23.2616 Q33.0029 21.5498 32.5641 20.6994 Q32.1309 19.8435 31.2588 19.8435 M31.2588 18.9542 Q32.653 18.9542 33.3862 20.0603 Q34.1249 21.1607 34.1249 23.2616 Q34.1249 25.357 33.3862 26.463 Q32.653 27.5635 31.2588 27.5635 Q29.8646 27.5635 29.1259 26.463 Q28.3927 25.357 28.3927 23.2616 Q28.3927 21.1607 29.1259 20.0603 Q29.8646 18.9542 31.2588 18.9542 Z" fill="#000000" fill-rule="evenodd" fill-opacity="1" /><path clip-path="url(#clip602)" d="
M338.732 221.859 L347.516 209.326 L356.291 196.843 L365.048 184.459 L373.78 172.225 L382.476 160.188 L391.129 148.398 L399.729 136.9 L408.269 125.741 L416.74 114.965 
  L425.132 104.615 L433.439 94.7323 L441.651 85.3565 L449.76 76.5249 L457.759 68.2726 L465.64 60.6325 L473.393 53.6352 L481.013 47.3084 L488.49 41.6775 L495.819 36.7648 
  L502.991 32.59 L509.999 29.1696 L516.836 26.5174 L523.496 24.6438 L529.972 23.5564 L536.256 23.2595 L542.345 23.7542 L548.23 25.0387 L553.906 27.1078 L559.368 29.9532 
  L564.61 33.5635 L569.626 37.9245 L574.413 43.0187 L578.965 48.8258 L583.277 55.3227 L587.345 62.4834 L591.166 70.2795 L594.735 78.6798 L598.048 87.6508 L601.104 97.1569 
  L603.897 107.16 L606.427 117.62 L608.689 128.496 L610.683 139.744 L612.405 151.32 L613.855 163.176 L615.03 175.267 L615.93 187.543 L616.553 199.956 L616.9 212.456 
  L616.969 224.994 L616.761 237.52 L616.276 249.983 L615.514 262.333 L614.477 274.523 L613.164 286.502 L611.578 298.224 L609.72 309.642 L607.591 320.709 L605.195 331.382 
  L602.533 341.619 L599.608 351.379 L596.424 360.622 L592.982 369.312 L589.287 377.414 L585.342 384.896 L581.151 391.729 L576.718 397.884 L572.049 403.337 L567.147 408.067 
  L562.017 412.055 L556.664 415.284 L551.094 417.743 L545.313 419.42 L539.326 420.31 L533.138 420.409 L526.757 419.717 L520.189 418.235 L513.439 415.971 L506.516 412.934 
  L499.425 409.134 L492.174 404.588 L484.77 399.314 L477.22 393.332 L469.533 386.666 L461.715 379.344 L453.774 371.394 L445.719 362.848 L437.557 353.739 L429.297 344.106 
  L420.946 333.984 L412.513 323.416 L404.007 312.443 L395.436 301.109 L386.808 289.459 L378.133 277.539 L369.418 265.398 L360.672 253.083 L351.905 240.643 L343.124 228.129 
  L334.339 215.589 L325.559 203.075 L316.791 190.635 L308.046 178.32 L299.331 166.179 L290.655 154.259 L282.027 142.609 L273.456 131.275 L264.95 120.302 L256.517 109.734 
  L248.167 99.6126 L239.906 89.9786 L231.744 80.8704 L223.689 72.3242 L215.749 64.3741 L207.931 57.0517 L200.243 50.3864 L192.694 44.4045 L185.29 39.1301 L178.039 34.584 
  L170.948 30.7845 L164.024 27.7467 L157.275 25.4827 L150.706 24.0015 L144.325 23.309 L138.138 23.408 L132.151 24.298 L126.369 25.9756 L120.799 28.4341 L115.447 31.6636 
  L110.317 35.6512 L105.415 40.3812 L100.745 45.8346 L96.3126 51.9896 L92.1218 58.8218 L88.1768 66.3039 L84.4816 74.4062 L81.0399 83.0962 L77.855 92.3393 L74.9302 102.099 
  L72.2683 112.336 L69.872 123.009 L67.7438 134.077 L65.8856 145.494 L64.2995 157.216 L62.9869 169.195 L61.9492 181.385 L61.1874 193.736 L60.7022 206.198 L60.4942 218.724 
  L60.5635 231.262 L60.9102 243.762 L61.5337 256.175 L62.4336 268.451 L63.6089 280.542 L65.0585 292.398 L66.7808 303.974 L68.7742 315.222 L71.0368 326.098 L73.5662 336.558 
  L76.3599 346.561 L79.4151 356.067 L82.7289 365.038 L86.2978 373.439 L90.1183 381.235 L94.1867 388.395 L98.4989 394.892 L103.05 400.699 L107.837 405.794 L112.854 410.155 
  L118.096 413.765 L123.557 416.61 L129.234 418.679 L135.119 419.964 L141.207 420.459 L147.492 420.162 L153.968 419.074 L160.627 417.201 L167.465 414.549 L174.473 411.128 
  L181.645 406.953 L188.973 402.041 L196.451 396.41 L204.07 390.083 L211.824 383.086 L219.704 375.446 L227.703 367.193 L235.813 358.362 L244.025 348.986 L252.331 339.103 
  L260.724 328.753 L269.194 317.977 L277.734 306.818 L286.335 295.32 L294.988 283.53 L303.684 271.493 L312.415 259.259 L321.173 246.875 L329.948 234.392 L338.732 221.859 
  L338.732 221.859 L329.948 221.859 L321.173 221.859 L312.415 221.859 L303.684 221.859 L294.988 221.859 L286.335 221.859 L277.734 221.859 L269.194 221.859 L260.724 221.859 
  L252.331 221.859 L244.025 221.859 L235.813 221.859 L227.703 221.859 L219.704 221.859 L211.824 221.859 L204.07 221.859 L196.451 221.859 L188.973 221.859 L181.645 221.859 
  L174.473 221.859 L167.465 221.859 L160.627 221.859 L153.968 221.859 L147.492 221.859 L141.207 221.859 L135.119 221.859 L129.234 221.859 L123.557 221.859 L118.096 221.859 
  L112.854 221.859 L107.837 221.859 L103.05 221.859 L98.4989 221.859 L94.1867 221.859 L90.1183 221.859 L86.2978 221.859 L82.7289 221.859 L79.4151 221.859 L76.3599 221.859 
  L73.5662 221.859 L71.0368 221.859 L68.7742 221.859 L66.7808 221.859 L65.0585 221.859 L63.6089 221.859 L62.4336 221.859 L61.5337 221.859 L60.9102 221.859 L60.5635 221.859 
  L60.4942 221.859 L60.7022 221.859 L61.1874 221.859 L61.9492 221.859 L62.9869 221.859 L64.2995 221.859 L65.8856 221.859 L67.7438 221.859 L69.872 221.859 L72.2683 221.859 
  L74.9302 221.859 L77.855 221.859 L81.0399 221.859 L84.4816 221.859 L88.1768 221.859 L92.1218 221.859 L96.3126 221.859 L100.745 221.859 L105.415 221.859 L110.317 221.859 
  L115.447 221.859 L120.799 221.859 L126.369 221.859 L132.151 221.859 L138.138 221.859 L144.325 221.859 L150.706 221.859 L157.275 221.859 L164.024 221.859 L170.948 221.859 
  L178.039 221.859 L185.29 221.859 L192.694 221.859 L200.243 221.859 L207.931 221.859 L215.749 221.859 L223.689 221.859 L231.744 221.859 L239.906 221.859 L248.167 221.859 
  L256.517 221.859 L264.95 221.859 L273.456 221.859 L282.027 221.859 L290.655 221.859 L299.331 221.859 L308.046 221.859 L316.791 221.859 L325.559 221.859 L334.339 221.859 
  L343.124 221.859 L351.905 221.859 L360.672 221.859 L369.418 221.859 L378.133 221.859 L386.808 221.859 L395.436 221.859 L404.007 221.859 L412.513 221.859 L420.946 221.859 
  L429.297 221.859 L437.557 221.859 L445.719 221.859 L453.774 221.859 L461.715 221.859 L469.533 221.859 L477.22 221.859 L484.77 221.859 L492.174 221.859 L499.425 221.859 
  L506.516 221.859 L513.439 221.859 L520.189 221.859 L526.757 221.859 L533.138 221.859 L539.326 221.859 L545.313 221.859 L551.094 221.859 L556.664 221.859 L562.017 221.859 
  L567.147 221.859 L572.049 221.859 L576.718 221.859 L581.151 221.859 L585.342 221.859 L589.287 221.859 L592.982 221.859 L596.424 221.859 L599.608 221.859 L602.533 221.859 
  L605.195 221.859 L607.591 221.859 L609.72 221.859 L611.578 221.859 L613.164 221.859 L614.477 221.859 L615.514 221.859 L616.276 221.859 L616.761 221.859 L616.969 221.859 
  L616.9 221.859 L616.553 221.859 L615.93 221.859 L615.03 221.859 L613.855 221.859 L612.405 221.859 L610.683 221.859 L608.689 221.859 L606.427 221.859 L603.897 221.859 
  L601.104 221.859 L598.048 221.859 L594.735 221.859 L591.166 221.859 L587.345 221.859 L583.277 221.859 L578.965 221.859 L574.413 221.859 L569.626 221.859 L564.61 221.859 
  L559.368 221.859 L553.906 221.859 L548.23 221.859 L542.345 221.859 L536.256 221.859 L529.972 221.859 L523.496 221.859 L516.836 221.859 L509.999 221.859 L502.991 221.859 
  L495.819 221.859 L488.49 221.859 L481.013 221.859 L473.393 221.859 L465.64 221.859 L457.759 221.859 L449.76 221.859 L441.651 221.859 L433.439 221.859 L425.132 221.859 
  L416.74 221.859 L408.269 221.859 L399.729 221.859 L391.129 221.859 L382.476 221.859 L373.78 221.859 L365.048 221.859 L356.291 221.859 L347.516 221.859 L338.732 221.859 
   Z
  " fill="#e6e6fa" fill-rule="evenodd" fill-opacity="1"/>
<polyline clip-path="url(#clip602)" style="stroke:#009af9; stroke-width:0.960417; stroke-opacity:1; fill:none" points="
  338.732,221.859 347.516,209.326 356.291,196.843 365.048,184.459 373.78,172.225 382.476,160.188 391.129,148.398 399.729,136.9 408.269,125.741 416.74,114.965 
  425.132,104.615 433.439,94.7323 441.651,85.3565 449.76,76.5249 457.759,68.2726 465.64,60.6325 473.393,53.6352 481.013,47.3084 488.49,41.6775 495.819,36.7648 
  502.991,32.59 509.999,29.1696 516.836,26.5174 523.496,24.6438 529.972,23.5564 536.256,23.2595 542.345,23.7542 548.23,25.0387 553.906,27.1078 559.368,29.9532 
  564.61,33.5635 569.626,37.9245 574.413,43.0187 578.965,48.8258 583.277,55.3227 587.345,62.4834 591.166,70.2795 594.735,78.6798 598.048,87.6508 601.104,97.1569 
  603.897,107.16 606.427,117.62 608.689,128.496 610.683,139.744 612.405,151.32 613.855,163.176 615.03,175.267 615.93,187.543 616.553,199.956 616.9,212.456 
  616.969,224.994 616.761,237.52 616.276,249.983 615.514,262.333 614.477,274.523 613.164,286.502 611.578,298.224 609.72,309.642 607.591,320.709 605.195,331.382 
  602.533,341.619 599.608,351.379 596.424,360.622 592.982,369.312 589.287,377.414 585.342,384.896 581.151,391.729 576.718,397.884 572.049,403.337 567.147,408.067 
  562.017,412.055 556.664,415.284 551.094,417.743 545.313,419.42 539.326,420.31 533.138,420.409 526.757,419.717 520.189,418.235 513.439,415.971 506.516,412.934 
  499.425,409.134 492.174,404.588 484.77,399.314 477.22,393.332 469.533,386.666 461.715,379.344 453.774,371.394 445.719,362.848 437.557,353.739 429.297,344.106 
  420.946,333.984 412.513,323.416 404.007,312.443 395.436,301.109 386.808,289.459 378.133,277.539 369.418,265.398 360.672,253.083 351.905,240.643 343.124,228.129 
  334.339,215.589 325.559,203.075 316.791,190.635 308.046,178.32 299.331,166.179 290.655,154.259 282.027,142.609 273.456,131.275 264.95,120.302 256.517,109.734 
  248.167,99.6126 239.906,89.9786 231.744,80.8704 223.689,72.3242 215.749,64.3741 207.931,57.0517 200.243,50.3864 192.694,44.4045 185.29,39.1301 178.039,34.584 
  170.948,30.7845 164.024,27.7467 157.275,25.4827 150.706,24.0015 144.325,23.309 138.138,23.408 132.151,24.298 126.369,25.9756 120.799,28.4341 115.447,31.6636 
  110.317,35.6512 105.415,40.3812 100.745,45.8346 96.3126,51.9896 92.1218,58.8218 88.1768,66.3039 84.4816,74.4062 81.0399,83.0962 77.855,92.3393 74.9302,102.099 
  72.2683,112.336 69.872,123.009 67.7438,134.077 65.8856,145.494 64.2995,157.216 62.9869,169.195 61.9492,181.385 61.1874,193.736 60.7022,206.198 60.4942,218.724 
  60.5635,231.262 60.9102,243.762 61.5337,256.175 62.4336,268.451 63.6089,280.542 65.0585,292.398 66.7808,303.974 68.7742,315.222 71.0368,326.098 73.5662,336.558 
  76.3599,346.561 79.4151,356.067 82.7289,365.038 86.2978,373.439 90.1183,381.235 94.1867,388.395 98.4989,394.892 103.05,400.699 107.837,405.794 112.854,410.155 
  118.096,413.765 123.557,416.61 129.234,418.679 135.119,419.964 141.207,420.459 147.492,420.162 153.968,419.074 160.627,417.201 167.465,414.549 174.473,411.128 
  181.645,406.953 188.973,402.041 196.451,396.41 204.07,390.083 211.824,383.086 219.704,375.446 227.703,367.193 235.813,358.362 244.025,348.986 252.331,339.103 
  260.724,328.753 269.194,317.977 277.734,306.818 286.335,295.32 294.988,283.53 303.684,271.493 312.415,259.259 321.173,246.875 329.948,234.392 338.732,221.859 
  
  "/>
</svg>
